<svg width="349" height="148" viewBox="0 0 349 148" fill="none" xmlns="http://www.w3.org/2000/svg">
<rect y="0.326172" width="348" height="147" rx="15" fill="#4CC1FF"/>
<mask id="mask0_3_1858" style="mask-type:alpha" maskUnits="userSpaceOnUse" x="-1" y="0" width="350" height="148">
<rect x="-0.115234" y="0.0574951" width="348.23" height="147.54" rx="15" fill="#FFF3E0"/>
</mask>
<g mask="url(#mask0_3_1858)">
<path d="M191.562 -24.3969C208.703 -25.9975 225.492 -31.3899 240.605 -40.1487C247.964 -44.3892 256.108 -47.0503 264.438 -47.9362C272.767 -48.822 281.071 -47.9099 288.737 -45.2672M270.049 7.80192C244.181 22.7809 215.038 31.1176 185.378 32.0229M253.354 -17.7922C260.044 -21.6543 267.986 -22.7133 275.434 -20.7364C282.882 -18.7594 289.226 -13.9084 293.07 -7.25041C296.914 -0.592462 297.943 7.32701 295.931 14.7658C293.919 22.2046 289.031 28.5534 282.342 32.4155C256.372 47.4783 227.391 56.5999 197.5 59.1189M265.426 103.538C281.466 97.9842 296.947 90.9175 311.656 82.435C331.574 70.935 346.146 52.0569 352.164 29.9539C358.182 7.85079 355.155 -15.6668 343.747 -35.4252C332.339 -55.1836 313.487 -69.5644 291.336 -75.4039C269.185 -81.2435 245.55 -78.0635 225.631 -66.5634C217.114 -61.616 207.81 -58.1699 198.133 -56.378M226.84 -6.00986C212.389 -1.02851 197.326 1.72142 182.216 2.13679M314.179 -24.7218C315.55 -22.915 316.811 -21.0287 317.955 -19.0721C325.148 -6.61264 326.85 8.33694 322.686 22.4879C318.522 36.6389 308.833 48.8322 295.751 56.3853C287.502 61.1388 278.982 65.404 270.239 69.1567M244.251 79.0702C238.457 81.3792 232.603 83.5846 226.87 85.5817" stroke="#32ACED" stroke-width="14" stroke-linecap="round" stroke-linejoin="round"/>
<path d="M30.484 70.3178C35.7742 68.3572 40.6316 65.2261 44.6729 61.1715C46.6426 59.2049 48.9949 57.6718 51.5566 56.6848C54.1183 55.6979 56.8243 55.2822 59.4754 55.4685" stroke="white" stroke-width="3" stroke-linecap="round" stroke-linejoin="round"/>
<path d="M58.061 73.854C51.1431 80.7899 42.6248 85.9009 33.3123 88.7033" stroke="white" stroke-width="3" stroke-linecap="round" stroke-linejoin="round"/>
<path d="M50.6044 67.1681C52.3944 65.3781 54.8188 64.3692 57.3442 64.3632C59.8697 64.3573 62.2894 65.3548 64.071 67.1364C65.8526 68.918 66.8501 71.3377 66.8442 73.8632C66.8382 76.3886 65.8293 78.813 64.0393 80.603C57.0959 87.5741 48.6955 92.9198 39.4471 96.2526" stroke="white" stroke-width="3" stroke-linecap="round" stroke-linejoin="round"/>
<path d="M64.7175 104.552C69.3241 101.434 73.6252 97.8836 77.562 93.9507C82.8919 88.6207 85.9033 81.4088 85.9336 73.9013C85.964 66.3939 83.0107 59.2061 77.7236 53.919C72.4365 48.6318 65.2487 45.6786 57.7412 45.7089C50.2338 45.7393 43.0219 48.7506 37.6919 54.0806C35.4151 56.3693 32.7622 58.2493 29.8509 59.6374" stroke="white" stroke-width="3" stroke-linecap="round" stroke-linejoin="round"/>
<path d="M43.2113 73.1469C39.0592 75.9495 34.5242 78.0977 29.7763 79.5108" stroke="white" stroke-width="3" stroke-linecap="round" stroke-linejoin="round"/>
<path d="M69.2719 59.815C69.8592 60.2707 70.4182 60.7609 70.9463 61.2833C74.2803 64.6172 76.0871 69.2053 75.9692 74.0381C75.8514 78.871 73.8185 83.5527 70.3178 87.0534C68.1097 89.2578 65.7745 91.3307 63.3253 93.2602" stroke="white" stroke-width="3" stroke-linecap="round" stroke-linejoin="round"/>
<path d="M55.9395 98.6026C54.3012 99.825 52.6351 101.02 50.9898 102.138" stroke="white" stroke-width="3" stroke-linecap="round" stroke-linejoin="round"/>
</g>
</svg>
