<svg width="349" height="148" viewBox="0 0 349 148" fill="none" xmlns="http://www.w3.org/2000/svg">
<rect y="0.326172" width="348" height="147" rx="15" fill="#FF6CD3"/>
<mask id="mask0_3_1914" style="mask-type:alpha" maskUnits="userSpaceOnUse" x="-1" y="0" width="350" height="148">
<rect x="-0.115234" y="0.0574951" width="348.23" height="147.54" rx="15" fill="#FFF3E0"/>
</mask>
<g mask="url(#mask0_3_1914)">
<path d="M91.3309 74.1795H88.7753V63.6081H90.0531C91.4074 63.6125 92.705 64.1708 93.6626 65.1611C94.6202 66.1514 95.16 67.4933 95.1642 68.8938C95.1642 69.2443 95.2988 69.5804 95.5385 69.8282C95.7781 70.076 96.1031 70.2153 96.442 70.2153C96.7809 70.2153 97.1059 70.076 97.3455 69.8282C97.5852 69.5804 97.7198 69.2443 97.7198 68.8938C97.7198 66.791 96.912 64.7744 95.4743 63.2875C94.0365 61.8006 92.0864 60.9653 90.0531 60.9653H88.7753V58.3224C88.7753 57.9719 88.6407 57.6358 88.4011 57.388C88.1615 57.1402 87.8364 57.001 87.4976 57.001C87.1587 57.001 86.8337 57.1402 86.594 57.388C86.3544 57.6358 86.2198 57.9719 86.2198 58.3224V60.9653H84.3031C82.2698 60.9653 80.3197 61.8006 78.882 63.2875C77.4442 64.7744 76.6364 66.791 76.6364 68.8938C76.6364 70.9966 77.4442 73.0133 78.882 74.5002C80.3197 75.9871 82.2698 76.8224 84.3031 76.8224H86.2198V87.3938H83.6642C82.31 87.3895 81.0124 86.8312 80.0548 85.8409C79.0972 84.8505 78.5573 83.5086 78.5531 82.1081C78.5531 81.7577 78.4185 81.4215 78.1789 81.1737C77.9392 80.9259 77.6142 80.7867 77.2753 80.7867C76.9364 80.7867 76.6114 80.9259 76.3718 81.1737C76.1322 81.4215 75.9976 81.7577 75.9976 82.1081C75.9976 84.2109 76.8053 86.2276 78.2431 87.7145C79.6809 89.2014 81.6309 90.0367 83.6642 90.0367H86.2198V92.6795C86.2198 93.03 86.3544 93.3661 86.594 93.6139C86.8337 93.8618 87.1587 94.001 87.4976 94.001C87.8364 94.001 88.1615 93.8618 88.4011 93.6139C88.6407 93.3661 88.7753 93.03 88.7753 92.6795V90.0367H91.3309C93.3642 90.0367 95.3143 89.2014 96.752 87.7145C98.1898 86.2276 98.9976 84.2109 98.9976 82.1081C98.9976 80.0053 98.1898 77.9887 96.752 76.5018C95.3143 75.0149 93.3642 74.1795 91.3309 74.1795ZM86.2198 74.1795H84.3031C82.9476 74.1795 81.6475 73.6227 80.689 72.6314C79.7305 71.6401 79.192 70.2957 79.192 68.8938C79.192 67.492 79.7305 66.1475 80.689 65.1563C81.6475 64.165 82.9476 63.6081 84.3031 63.6081H86.2198V74.1795ZM91.3309 87.3938H88.7753V76.8224H91.3309C92.6864 76.8224 93.9865 77.3793 94.945 78.3706C95.9035 79.3618 96.442 80.7063 96.442 82.1081C96.442 83.51 95.9035 84.8544 94.945 85.8457C93.9865 86.8369 92.6864 87.3938 91.3309 87.3938Z" fill="white"/>
<circle cx="86.9976" cy="74.001" r="27.5" stroke="white" stroke-width="3"/>
<line x1="46.4976" y1="51.501" x2="69.4976" y2="51.501" stroke="white" stroke-width="3" stroke-linecap="round"/>
<line x1="31.4976" y1="83.501" x2="54.4976" y2="83.501" stroke="white" stroke-width="3" stroke-linecap="round"/>
<line x1="46.4976" y1="96.501" x2="69.4976" y2="96.501" stroke="white" stroke-width="3" stroke-linecap="round"/>
<line x1="44.4976" y1="62.501" x2="54.4976" y2="62.501" stroke="white" stroke-width="3" stroke-linecap="round"/>
<line x1="34.4976" y1="62.501" x2="38.4976" y2="62.501" stroke="white" stroke-width="3" stroke-linecap="round"/>
<line x1="35.4976" y1="73.501" x2="58.4976" y2="73.501" stroke="white" stroke-width="3" stroke-linecap="round"/>
<path d="M337.522 71.3634L331.641 72.9393L325.122 48.6103L328.062 47.8224C331.182 46.9973 334.512 47.4819 337.327 49.1706C340.141 50.8592 342.211 53.6145 343.084 56.8351C343.301 57.6416 343.818 58.3321 344.522 58.7547C345.226 59.1772 346.06 59.2972 346.84 59.0882C347.62 58.8793 348.282 58.3584 348.681 57.6404C349.079 56.9223 349.182 56.0657 348.966 55.2592C347.669 50.4198 344.567 46.2768 340.341 43.7415C336.115 41.2062 331.112 40.4862 326.433 41.7401L323.492 42.5281L321.862 36.4458C321.646 35.6393 321.129 34.9487 320.425 34.5262C319.72 34.1036 318.887 33.9837 318.107 34.1926C317.327 34.4016 316.665 34.9224 316.266 35.6405C315.867 36.3586 315.765 37.2152 315.981 38.0217L317.611 44.104L313.2 45.2859C308.52 46.5397 304.547 49.6647 302.155 53.9732C299.763 58.2818 299.148 63.421 300.445 68.2603C301.741 73.0997 304.844 77.2427 309.07 79.778C313.296 82.3134 318.298 83.0333 322.978 81.7794L327.389 80.5975L333.908 104.926L328.027 106.502C324.907 107.327 321.577 106.843 318.762 105.154C315.948 103.466 313.878 100.71 313.004 97.4897C312.788 96.6831 312.271 95.9926 311.567 95.5701C310.863 95.1475 310.029 95.0275 309.249 95.2365C308.469 95.4455 307.807 95.9663 307.408 96.6844C307.01 97.4025 306.907 98.259 307.123 99.0656C308.42 103.905 311.522 108.048 315.748 110.583C319.974 113.119 324.977 113.838 329.656 112.585L335.538 111.009L337.167 117.091C337.384 117.898 337.901 118.588 338.605 119.011C339.309 119.433 340.143 119.553 340.923 119.344C341.703 119.135 342.365 118.614 342.764 117.896C343.162 117.178 343.265 116.322 343.049 115.515L341.419 109.433L347.3 107.857C351.98 106.603 355.953 103.478 358.345 99.1696C360.737 94.8611 361.352 89.7218 360.055 84.8825C358.758 80.0431 355.656 75.9001 351.43 73.3648C347.204 70.8295 342.201 70.1096 337.522 71.3634ZM325.759 74.5152L321.348 75.6971C318.229 76.5331 314.893 76.0531 312.076 74.3629C309.259 72.6727 307.191 69.9107 306.326 66.6844C305.462 63.4582 305.872 60.0321 307.467 57.1597C309.061 54.2873 311.71 52.204 314.829 51.3681L319.24 50.1862L325.759 74.5152ZM345.671 101.775L339.789 103.351L333.27 79.0216L339.152 77.4457C342.271 76.6098 345.607 77.0897 348.424 78.7799C351.241 80.4701 353.309 83.2322 354.174 86.4584C355.038 89.6846 354.628 93.1108 353.033 95.9831C351.439 98.8555 348.79 100.939 345.671 101.775Z" fill="#F54BC2"/>
<circle cx="327.444" cy="73.6237" r="68.8809" transform="rotate(-15 327.444 73.6237)" stroke="#F54BC3" stroke-width="15"/>
<line x1="222.158" y1="41.5099" x2="292.316" y2="14.6748" stroke="#F54BC3" stroke-width="15" stroke-linecap="round"/>
<line x1="208.346" y1="124.902" x2="253.694" y2="112.752" stroke="#F54BC3" stroke-width="15" stroke-linecap="round"/>
<line x1="249.827" y1="145.038" x2="286.281" y2="130.754" stroke="#F54BC3" stroke-width="15" stroke-linecap="round"/>
<line x1="225.313" y1="68.5566" x2="240.742" y2="64.4224" stroke="#F54BC3" stroke-width="15" stroke-linecap="round"/>
<line x1="202.303" y1="74.7236" x2="203.924" y2="74.2893" stroke="#F54BC3" stroke-width="15" stroke-linecap="round"/>
<line x1="211.385" y1="99.4218" x2="256.733" y2="87.2711" stroke="#F54BC3" stroke-width="15" stroke-linecap="round"/>
</g>
</svg>
