<svg width="348" height="148" viewBox="0 0 348 148" fill="none" xmlns="http://www.w3.org/2000/svg">
<rect y="0.32605" width="348" height="147" rx="15" fill="#7D7AFF"/>
<mask id="mask0_3_1894" style="mask-type:alpha" maskUnits="userSpaceOnUse" x="0" y="0" width="348" height="147">
<rect width="348" height="147" rx="15" fill="#FFF3E0"/>
</mask>
<g mask="url(#mask0_3_1894)">
</g>
<mask id="mask1_3_1894" style="mask-type:alpha" maskUnits="userSpaceOnUse" x="0" y="1" width="348" height="146">
<rect y="1" width="348" height="146" rx="15" fill="#7D7AFF"/>
</mask>
<g mask="url(#mask1_3_1894)">
<path d="M389.499 -12.862L198.068 38.4321C193.662 39.6125 191.048 44.1405 192.229 48.5457L226.425 176.167C227.605 180.572 232.133 183.186 236.538 182.006L427.97 130.712C432.375 129.532 434.989 125.004 433.809 120.598L399.613 -7.02288C398.433 -11.4281 393.905 -14.0423 389.499 -12.862Z" stroke="#625FF9" stroke-width="17" stroke-linecap="round" stroke-linejoin="round"/>
<path d="M315.73 126.591L331.683 122.316" stroke="#625FF9" stroke-width="17" stroke-linecap="round" stroke-linejoin="round"/>
<path d="M201.019 81.3486L408.404 25.7801" stroke="#625FF9" stroke-width="17" stroke-linecap="round" stroke-linejoin="round"/>
<path d="M113.993 48.2131L41.0172 48.2131C39.3379 48.2131 37.9766 49.5745 37.9766 51.2538L37.9766 99.9047C37.9766 101.584 39.3379 102.945 41.0172 102.945L113.993 102.945C115.673 102.945 117.034 101.584 117.034 99.9047L117.034 51.2538C117.034 49.5745 115.673 48.2131 113.993 48.2131Z" stroke="white" stroke-width="3" stroke-linecap="round" stroke-linejoin="round"/>
<path d="M92.709 90.7825L104.872 90.7825" stroke="white" stroke-width="3" stroke-linecap="round" stroke-linejoin="round"/>
<path d="M74.4648 90.7825L80.5462 90.7825" stroke="white" stroke-width="3" stroke-linecap="round" stroke-linejoin="round"/>
<path d="M37.9766 63.759L117.034 63.759" stroke="white" stroke-width="3" stroke-linecap="round" stroke-linejoin="round"/>
</g>
</svg>
