<svg width="429" height="210" viewBox="0 0 429 210" fill="none" xmlns="http://www.w3.org/2000/svg">
<circle cx="96" cy="97.0524" r="84" fill="white"/>
<path d="M56.5303 48.3478H64.9727C68.8197 48.3478 71.609 48.8982 73.3408 49.9991C75.085 51.0877 75.957 52.8256 75.957 55.213C75.957 56.8335 75.5736 58.1632 74.8066 59.2023C74.0521 60.2413 73.0439 60.866 71.7822 61.0763V61.2618C73.5016 61.6453 74.7386 62.3628 75.4932 63.4142C76.2601 64.4656 76.6436 65.8634 76.6436 67.6075C76.6436 70.0815 75.7467 72.0112 73.9531 73.3966C72.1719 74.782 69.7474 75.4747 66.6797 75.4747H56.5303V48.3478ZM62.2822 59.0909H65.6221C67.1807 59.0909 68.3063 58.8497 68.999 58.3673C69.7041 57.8849 70.0566 57.087 70.0566 55.9738C70.0566 54.9347 69.6732 54.1925 68.9062 53.7472C68.1517 53.2895 66.9518 53.0607 65.3066 53.0607H62.2822V59.0909ZM62.2822 63.6554V70.7247H66.0303C67.6136 70.7247 68.7826 70.4217 69.5371 69.8156C70.2917 69.2094 70.6689 68.2817 70.6689 67.0323C70.6689 64.781 69.0609 63.6554 65.8447 63.6554H62.2822ZM97.6846 75.4747H82.0615V48.3478H97.6846V53.0607H87.8135V59.0167H96.998V63.7296H87.8135V70.7247H97.6846V75.4747ZM119.375 67.9415C119.375 70.3907 118.491 72.3204 116.722 73.7306C114.965 75.1407 112.516 75.8458 109.374 75.8458C106.479 75.8458 103.919 75.3016 101.692 74.213V68.8693C103.523 69.6857 105.069 70.2609 106.331 70.5948C107.605 70.9288 108.768 71.0958 109.819 71.0958C111.081 71.0958 112.046 70.8546 112.714 70.3722C113.394 69.8898 113.734 69.1723 113.734 68.2198C113.734 67.6879 113.586 67.2179 113.289 66.8097C112.992 66.3891 112.553 65.9871 111.972 65.6036C111.403 65.2202 110.234 64.6079 108.465 63.7667C106.807 62.9874 105.564 62.2391 104.735 61.5216C103.907 60.8042 103.245 59.9692 102.75 59.0167C102.255 58.0642 102.008 56.951 102.008 55.6769C102.008 53.2771 102.818 51.3907 104.438 50.0177C106.071 48.6447 108.323 47.9581 111.192 47.9581C112.603 47.9581 113.945 48.1251 115.219 48.4591C116.505 48.7931 117.847 49.2631 119.245 49.8693L117.39 54.3409C115.942 53.7472 114.743 53.3328 113.79 53.0978C112.85 52.8628 111.922 52.7452 111.007 52.7452C109.918 52.7452 109.083 52.9988 108.502 53.506C107.921 54.0131 107.63 54.6749 107.63 55.4913C107.63 55.9985 107.747 56.4438 107.982 56.8273C108.217 57.1984 108.589 57.5633 109.096 57.922C109.615 58.2684 110.834 58.8992 112.751 59.8146C115.287 61.0268 117.025 62.2452 117.965 63.4698C118.905 64.6821 119.375 66.1726 119.375 67.9415ZM134.757 75.4747H129.005V53.1349H121.639V48.3478H142.123V53.1349H134.757V75.4747Z" fill="#231656"/>
<path d="M76.3077 87.4146C76.3077 88.0387 76.2283 88.6074 76.0696 89.1207C75.9145 89.6302 75.68 90.0697 75.3661 90.4389C75.0522 90.8045 74.659 91.087 74.1863 91.2864C73.7136 91.4858 73.1597 91.5855 72.5246 91.5855C71.8784 91.5855 71.3171 91.4858 70.8407 91.2864C70.3681 91.087 69.9748 90.8027 69.6609 90.4334C69.3507 90.0641 69.1181 89.6229 68.963 89.1096C68.8079 88.5963 68.7304 88.0276 68.7304 87.4036C68.7304 86.569 68.867 85.8416 69.1403 85.2212C69.4172 84.5971 69.8363 84.1134 70.3976 83.77C70.9626 83.4229 71.6753 83.2493 72.5357 83.2493C73.3776 83.2493 74.0774 83.421 74.635 83.7644C75.1925 84.1078 75.6098 84.5916 75.8868 85.2156C76.1674 85.836 76.3077 86.569 76.3077 87.4146ZM70.1262 87.4146C70.1262 88.0387 70.2111 88.5797 70.381 89.0376C70.5509 89.4918 70.8112 89.8426 71.162 90.09C71.5165 90.3337 71.9707 90.4556 72.5246 90.4556C73.0822 90.4556 73.5364 90.3337 73.8872 90.09C74.238 89.8426 74.4965 89.4918 74.6626 89.0376C74.8288 88.5797 74.9119 88.0387 74.9119 87.4146C74.9119 86.4656 74.7217 85.7234 74.3414 85.188C73.9647 84.6488 73.3628 84.3793 72.5357 84.3793C71.9818 84.3793 71.5257 84.5011 71.1675 84.7448C70.813 84.9885 70.5509 85.3375 70.381 85.7917C70.2111 86.2422 70.1262 86.7832 70.1262 87.4146ZM81.1101 85.2267C81.8006 85.2267 82.3379 85.4058 82.7219 85.764C83.1096 86.1185 83.3035 86.689 83.3035 87.4756V91.4747H82.0018V87.7193C82.0018 87.2429 81.904 86.8866 81.7083 86.6503C81.5126 86.4102 81.2098 86.2902 80.7999 86.2902C80.2054 86.2902 79.7918 86.473 79.5591 86.8386C79.3302 87.2042 79.2157 87.7341 79.2157 88.4283V91.4747H77.9141V85.343H78.9277L79.1105 86.1739H79.1825C79.3154 85.9597 79.4797 85.7843 79.6755 85.6477C79.8749 85.5074 80.0964 85.4021 80.3401 85.332C80.5875 85.2618 80.8442 85.2267 81.1101 85.2267ZM86.4331 91.4747H85.1258V82.856H86.4331V91.4747ZM89.5958 85.343V91.4747H88.2942V85.343H89.5958ZM88.9533 82.9945C89.1527 82.9945 89.3244 83.048 89.4684 83.1551C89.6161 83.2622 89.69 83.4469 89.69 83.709C89.69 83.9675 89.6161 84.1522 89.4684 84.2629C89.3244 84.37 89.1527 84.4236 88.9533 84.4236C88.7465 84.4236 88.5711 84.37 88.4271 84.2629C88.2868 84.1522 88.2166 83.9675 88.2166 83.709C88.2166 83.4469 88.2868 83.2622 88.4271 83.1551C88.5711 83.048 88.7465 82.9945 88.9533 82.9945ZM94.6585 85.2267C95.349 85.2267 95.8863 85.4058 96.2703 85.764C96.6581 86.1185 96.8519 86.689 96.8519 87.4756V91.4747H95.5503V87.7193C95.5503 87.2429 95.4524 86.8866 95.2567 86.6503C95.061 86.4102 94.7582 86.2902 94.3483 86.2902C93.7538 86.2902 93.3402 86.473 93.1076 86.8386C92.8786 87.2042 92.7641 87.7341 92.7641 88.4283V91.4747H91.4625V85.343H92.4761L92.6589 86.1739H92.7309C92.8638 85.9597 93.0282 85.7843 93.2239 85.6477C93.4233 85.5074 93.6448 85.4021 93.8886 85.332C94.136 85.2618 94.3926 85.2267 94.6585 85.2267ZM101.117 85.2267C101.663 85.2267 102.132 85.3394 102.524 85.5646C102.915 85.7899 103.216 86.1093 103.427 86.5229C103.637 86.9364 103.742 87.4313 103.742 88.0073V88.7052H99.6491C99.6639 89.2997 99.8227 89.7576 100.125 90.0789C100.432 90.4002 100.86 90.5608 101.411 90.5608C101.802 90.5608 102.153 90.5239 102.463 90.45C102.777 90.3725 103.1 90.2598 103.432 90.1121V91.1701C103.126 91.3141 102.814 91.4193 102.496 91.4858C102.179 91.5523 101.798 91.5855 101.355 91.5855C100.753 91.5855 100.223 91.4692 99.7655 91.2366C99.3113 91.0002 98.9549 90.6494 98.6964 90.1841C98.4416 89.7189 98.3142 89.141 98.3142 88.4504C98.3142 87.7636 98.4306 87.1801 98.6632 86.7001C98.8958 86.2201 99.2226 85.8545 99.6436 85.6034C100.065 85.3523 100.556 85.2267 101.117 85.2267ZM101.117 86.2071C100.707 86.2071 100.375 86.3401 100.12 86.6059C99.8689 86.8718 99.7211 87.2614 99.6768 87.7747H102.468C102.465 87.4682 102.413 87.1968 102.313 86.9604C102.217 86.7241 102.07 86.5395 101.87 86.4065C101.675 86.2736 101.423 86.2071 101.117 86.2071ZM111.303 85.2267C112.031 85.2267 112.614 85.4926 113.054 86.0243C113.497 86.5561 113.718 87.3463 113.718 88.395C113.718 89.0893 113.615 89.6746 113.408 90.1509C113.205 90.6236 112.919 90.9818 112.55 91.2255C112.184 91.4655 111.757 91.5855 111.27 91.5855C110.96 91.5855 110.69 91.5449 110.461 91.4637C110.232 91.3824 110.037 91.2772 109.874 91.1479C109.712 91.015 109.575 90.871 109.464 90.7159H109.387C109.405 90.8636 109.422 91.0279 109.437 91.2089C109.455 91.3861 109.464 91.5486 109.464 91.6963V94.1944H108.157V85.343H109.221L109.403 86.1905H109.464C109.579 86.017 109.717 85.8563 109.88 85.7086C110.046 85.5609 110.245 85.4446 110.478 85.3597C110.714 85.271 110.989 85.2267 111.303 85.2267ZM110.954 86.2902C110.596 86.2902 110.308 86.3622 110.09 86.5062C109.876 86.6466 109.719 86.8589 109.619 87.1432C109.523 87.4276 109.472 87.7839 109.464 88.2123V88.395C109.464 88.8492 109.51 89.2351 109.603 89.5527C109.699 89.8666 109.856 90.1066 110.074 90.2728C110.295 90.4352 110.594 90.5165 110.971 90.5165C111.288 90.5165 111.551 90.4297 111.757 90.2561C111.968 90.0826 112.125 89.8352 112.228 89.5139C112.332 89.1927 112.383 88.8142 112.383 88.3784C112.383 87.7174 112.265 87.2042 112.029 86.8386C111.796 86.473 111.438 86.2902 110.954 86.2902ZM117.629 85.2267C118.404 85.2267 118.99 85.3984 119.385 85.7419C119.783 86.0853 119.983 86.6207 119.983 87.3482V91.4747H119.058L118.809 90.6051H118.764C118.591 90.8267 118.412 91.0095 118.227 91.1535C118.042 91.2975 117.828 91.4046 117.584 91.4747C117.344 91.5486 117.051 91.5855 116.704 91.5855C116.338 91.5855 116.011 91.519 115.723 91.3861C115.435 91.2495 115.208 91.0427 115.042 90.7657C114.876 90.4888 114.793 90.138 114.793 89.7133C114.793 89.0819 115.027 88.6074 115.496 88.2898C115.969 87.9722 116.682 87.7968 117.634 87.7636L118.698 87.7248V87.4036C118.698 86.9789 118.598 86.6761 118.399 86.4952C118.203 86.3142 117.926 86.2237 117.568 86.2237C117.261 86.2237 116.964 86.2681 116.676 86.3567C116.388 86.4453 116.107 86.5542 115.834 86.6835L115.413 85.764C115.712 85.6052 116.052 85.476 116.432 85.3763C116.816 85.2766 117.215 85.2267 117.629 85.2267ZM118.692 88.5446L117.9 88.5723C117.25 88.5944 116.794 88.7052 116.532 88.9046C116.27 89.104 116.139 89.3773 116.139 89.7244C116.139 90.0272 116.229 90.2488 116.41 90.3891C116.591 90.5257 116.829 90.594 117.125 90.594C117.575 90.594 117.948 90.4666 118.244 90.2118C118.543 89.9533 118.692 89.5748 118.692 89.0763V88.5446ZM120.88 85.343H122.298L123.556 88.8437C123.611 89.0025 123.661 89.1594 123.705 89.3145C123.753 89.4659 123.794 89.6155 123.827 89.7632C123.864 89.9109 123.893 90.0586 123.916 90.2063H123.949C123.986 90.0143 124.037 89.8001 124.104 89.5638C124.174 89.3237 124.252 89.0837 124.337 88.8437L125.544 85.343H126.945L124.314 92.3167C124.163 92.7155 123.976 93.0552 123.755 93.3358C123.537 93.6202 123.279 93.8344 122.979 93.9784C122.68 94.1261 122.339 94.1999 121.955 94.1999C121.77 94.1999 121.609 94.1888 121.473 94.1667C121.336 94.1482 121.22 94.1279 121.124 94.1058V93.0644C121.201 93.0829 121.299 93.0995 121.417 93.1143C121.536 93.1291 121.657 93.1364 121.783 93.1364C122.016 93.1364 122.217 93.0903 122.387 92.998C122.557 92.9056 122.701 92.7746 122.819 92.6047C122.937 92.4385 123.035 92.2483 123.112 92.0342L123.328 91.4581L120.88 85.343ZM47.7929 107.475L45.461 100.712H45.4111C45.4222 100.863 45.4351 101.07 45.4499 101.332C45.4647 101.594 45.4776 101.875 45.4887 102.174C45.4997 102.473 45.5053 102.759 45.5053 103.032V107.475H44.2978V99.3767H46.1644L48.4077 105.841H48.441L50.7618 99.3767H52.6229V107.475H51.3545V102.966C51.3545 102.719 51.3582 102.451 51.3656 102.163C51.3766 101.875 51.3877 101.602 51.3988 101.343C51.4136 101.085 51.4246 100.878 51.432 100.723H51.3877L48.9672 107.475H47.7929ZM60.0507 104.395C60.0507 104.905 59.9843 105.357 59.8513 105.752C59.7184 106.147 59.5245 106.481 59.2697 106.755C59.0149 107.024 58.7084 107.231 58.3503 107.375C57.9921 107.515 57.5877 107.586 57.1372 107.586C56.7162 107.586 56.3304 107.515 55.9796 107.375C55.6288 107.231 55.3241 107.024 55.0656 106.755C54.8108 106.481 54.6133 106.147 54.4729 105.752C54.3326 105.357 54.2625 104.905 54.2625 104.395C54.2625 103.719 54.3788 103.147 54.6114 102.678C54.8478 102.205 55.1838 101.845 55.6195 101.598C56.0553 101.35 56.5741 101.227 57.176 101.227C57.741 101.227 58.2395 101.35 58.6715 101.598C59.1036 101.845 59.4414 102.205 59.6852 102.678C59.9289 103.151 60.0507 103.723 60.0507 104.395ZM55.6029 104.395C55.6029 104.842 55.6564 105.224 55.7635 105.542C55.8743 105.859 56.0442 106.103 56.2731 106.273C56.5021 106.439 56.7975 106.522 57.1594 106.522C57.5212 106.522 57.8167 106.439 58.0456 106.273C58.2746 106.103 58.4426 105.859 58.5497 105.542C58.6567 105.224 58.7103 104.842 58.7103 104.395C58.7103 103.948 58.6567 103.57 58.5497 103.26C58.4426 102.946 58.2746 102.707 58.0456 102.545C57.8167 102.379 57.5194 102.296 57.1538 102.296C56.6147 102.296 56.2214 102.477 55.974 102.839C55.7266 103.2 55.6029 103.719 55.6029 104.395ZM62.8479 98.856V100.933C62.8479 101.173 62.8405 101.41 62.8258 101.642C62.8147 101.871 62.8036 102.05 62.7925 102.179H62.8479C63.0141 101.914 63.2449 101.69 63.5403 101.509C63.8394 101.325 64.2216 101.232 64.6869 101.232C65.4143 101.232 65.9996 101.5 66.4428 102.035C66.8859 102.567 67.1074 103.356 67.1074 104.401C67.1074 105.095 67.0059 105.678 66.8028 106.151C66.5997 106.624 66.3135 106.982 65.9442 107.225C65.5787 107.465 65.1485 107.586 64.6537 107.586C64.1884 107.586 63.8117 107.501 63.5237 107.331C63.2394 107.157 63.016 106.956 62.8535 106.727H62.7593L62.5211 107.475H61.5463V98.856H62.8479ZM64.3435 102.29C63.9742 102.29 63.6806 102.364 63.4628 102.512C63.2486 102.659 63.0935 102.881 62.9975 103.176C62.9015 103.468 62.8516 103.839 62.8479 104.29V104.406C62.8479 105.089 62.955 105.612 63.1692 105.974C63.3871 106.336 63.7822 106.516 64.3545 106.516C64.8087 106.516 65.1577 106.334 65.4014 105.968C65.6451 105.599 65.767 105.071 65.767 104.384C65.767 103.69 65.6451 103.167 65.4014 102.816C65.1614 102.466 64.8087 102.29 64.3435 102.29ZM69.9157 101.343V107.475H68.614V101.343H69.9157ZM69.2732 98.9945C69.4726 98.9945 69.6443 99.048 69.7883 99.1551C69.936 99.2622 70.0099 99.4469 70.0099 99.709C70.0099 99.9675 69.936 100.152 69.7883 100.263C69.6443 100.37 69.4726 100.424 69.2732 100.424C69.0664 100.424 68.891 100.37 68.747 100.263C68.6067 100.152 68.5365 99.9675 68.5365 99.709C68.5365 99.4469 68.6067 99.2622 68.747 99.1551C68.891 99.048 69.0664 98.9945 69.2732 98.9945ZM73.0896 107.475H71.7824V98.856H73.0896V107.475ZM77.3934 101.227C77.9399 101.227 78.4089 101.339 78.8003 101.565C79.1917 101.79 79.4927 102.109 79.7031 102.523C79.9136 102.936 80.0189 103.431 80.0189 104.007V104.705H75.9255C75.9403 105.3 76.0991 105.758 76.4019 106.079C76.7084 106.4 77.1367 106.561 77.6869 106.561C78.0784 106.561 78.4292 106.524 78.7394 106.45C79.0532 106.372 79.3763 106.26 79.7087 106.112V107.17C79.4022 107.314 79.0902 107.419 78.7726 107.486C78.455 107.552 78.0747 107.586 77.6316 107.586C77.0297 107.586 76.4998 107.469 76.0419 107.237C75.5877 107 75.2313 106.649 74.9728 106.184C74.718 105.719 74.5906 105.141 74.5906 104.45C74.5906 103.764 74.707 103.18 74.9396 102.7C75.1722 102.22 75.499 101.854 75.92 101.603C76.341 101.352 76.8321 101.227 77.3934 101.227ZM77.3934 102.207C76.9835 102.207 76.6512 102.34 76.3964 102.606C76.1453 102.872 75.9976 103.261 75.9532 103.775H78.7449C78.7412 103.468 78.6895 103.197 78.5898 102.96C78.4938 102.724 78.3461 102.539 78.1467 102.407C77.951 102.274 77.6999 102.207 77.3934 102.207ZM86.8374 101.227C87.6129 101.227 88.1981 101.398 88.5933 101.742C88.9921 102.085 89.1915 102.621 89.1915 103.348V107.475H88.2665L88.0172 106.605H87.9729C87.7993 106.827 87.6202 107.009 87.4356 107.153C87.251 107.297 87.0368 107.405 86.7931 107.475C86.5531 107.549 86.2595 107.586 85.9124 107.586C85.5468 107.586 85.22 107.519 84.932 107.386C84.6439 107.249 84.4168 107.043 84.2507 106.766C84.0845 106.489 84.0014 106.138 84.0014 105.713C84.0014 105.082 84.2359 104.607 84.7049 104.29C85.1775 103.972 85.8902 103.797 86.8429 103.764L87.9064 103.725V103.404C87.9064 102.979 87.8067 102.676 87.6073 102.495C87.4116 102.314 87.1347 102.224 86.7765 102.224C86.47 102.224 86.1727 102.268 85.8847 102.357C85.5967 102.445 85.316 102.554 85.0428 102.683L84.6218 101.764C84.9209 101.605 85.2606 101.476 85.641 101.376C86.025 101.277 86.4238 101.227 86.8374 101.227ZM87.9009 104.545L87.1088 104.572C86.4589 104.594 86.0029 104.705 85.7407 104.905C85.4785 105.104 85.3474 105.377 85.3474 105.724C85.3474 106.027 85.4379 106.249 85.6188 106.389C85.7998 106.526 86.0379 106.594 86.3333 106.594C86.7839 106.594 87.1568 106.467 87.4522 106.212C87.7513 105.953 87.9009 105.575 87.9009 105.076V104.545ZM94.16 101.227C94.8874 101.227 95.4709 101.493 95.9103 102.024C96.3534 102.556 96.575 103.346 96.575 104.395C96.575 105.089 96.4716 105.675 96.2648 106.151C96.0617 106.624 95.7755 106.982 95.4063 107.225C95.0407 107.465 94.6142 107.586 94.1267 107.586C93.8166 107.586 93.547 107.545 93.318 107.464C93.0891 107.382 92.8934 107.277 92.7309 107.148C92.5684 107.015 92.4318 106.871 92.321 106.716H92.2435C92.2619 106.864 92.2786 107.028 92.2933 107.209C92.3118 107.386 92.321 107.549 92.321 107.696V110.194H91.0138V101.343H92.0773L92.2601 102.191H92.321C92.4355 102.017 92.574 101.856 92.7364 101.709C92.9026 101.561 93.102 101.445 93.3347 101.36C93.571 101.271 93.8461 101.227 94.16 101.227ZM93.811 102.29C93.4528 102.29 93.1648 102.362 92.9469 102.506C92.7328 102.647 92.5758 102.859 92.4761 103.143C92.3801 103.428 92.3284 103.784 92.321 104.212V104.395C92.321 104.849 92.3672 105.235 92.4595 105.553C92.5555 105.867 92.7124 106.107 92.9303 106.273C93.1519 106.435 93.451 106.516 93.8276 106.516C94.1452 106.516 94.4074 106.43 94.6142 106.256C94.8247 106.083 94.9816 105.835 95.085 105.514C95.1884 105.193 95.2401 104.814 95.2401 104.378C95.2401 103.717 95.1219 103.204 94.8856 102.839C94.6529 102.473 94.2948 102.29 93.811 102.29ZM101.228 101.227C101.955 101.227 102.539 101.493 102.978 102.024C103.421 102.556 103.643 103.346 103.643 104.395C103.643 105.089 103.539 105.675 103.333 106.151C103.129 106.624 102.843 106.982 102.474 107.225C102.108 107.465 101.682 107.586 101.195 107.586C100.884 107.586 100.615 107.545 100.386 107.464C100.157 107.382 99.9612 107.277 99.7987 107.148C99.6362 107.015 99.4996 106.871 99.3888 106.716H99.3113C99.3297 106.864 99.3463 107.028 99.3611 107.209C99.3796 107.386 99.3888 107.549 99.3888 107.696V110.194H98.0816V101.343H99.1451L99.3279 102.191H99.3888C99.5033 102.017 99.6417 101.856 99.8042 101.709C99.9704 101.561 100.17 101.445 100.402 101.36C100.639 101.271 100.914 101.227 101.228 101.227ZM100.879 102.29C100.521 102.29 100.233 102.362 100.015 102.506C99.8005 102.647 99.6436 102.859 99.5439 103.143C99.4479 103.428 99.3962 103.784 99.3888 104.212V104.395C99.3888 104.849 99.435 105.235 99.5273 105.553C99.6233 105.867 99.7802 106.107 99.9981 106.273C100.22 106.435 100.519 106.516 100.895 106.516C101.213 106.516 101.475 106.43 101.682 106.256C101.892 106.083 102.049 105.835 102.153 105.514C102.256 105.193 102.308 104.814 102.308 104.378C102.308 103.717 102.19 103.204 101.953 102.839C101.721 102.473 101.363 102.29 100.879 102.29ZM112.904 105.27C112.904 105.75 112.786 106.164 112.549 106.511C112.317 106.858 111.981 107.124 111.541 107.309C111.106 107.493 110.585 107.586 109.979 107.586C109.684 107.586 109.401 107.569 109.132 107.536C108.862 107.502 108.608 107.454 108.368 107.392C108.131 107.325 107.915 107.246 107.719 107.153V105.902C108.048 106.046 108.416 106.177 108.822 106.295C109.228 106.409 109.642 106.467 110.062 106.467C110.406 106.467 110.69 106.422 110.915 106.334C111.144 106.241 111.314 106.112 111.425 105.946C111.536 105.776 111.591 105.579 111.591 105.353C111.591 105.113 111.527 104.91 111.397 104.744C111.268 104.578 111.072 104.426 110.81 104.29C110.552 104.149 110.227 104 109.835 103.841C109.57 103.734 109.315 103.612 109.071 103.476C108.831 103.339 108.617 103.178 108.428 102.994C108.24 102.809 108.091 102.591 107.98 102.34C107.873 102.085 107.819 101.786 107.819 101.443C107.819 100.985 107.928 100.593 108.146 100.268C108.368 99.9435 108.678 99.6943 109.077 99.5207C109.479 99.3472 109.948 99.2604 110.483 99.2604C110.908 99.2604 111.307 99.3047 111.68 99.3933C112.057 99.4819 112.426 99.6075 112.788 99.77L112.367 100.839C112.034 100.702 111.711 100.593 111.397 100.512C111.087 100.431 110.77 100.39 110.445 100.39C110.164 100.39 109.926 100.433 109.73 100.518C109.534 100.603 109.385 100.723 109.281 100.878C109.182 101.029 109.132 101.21 109.132 101.421C109.132 101.657 109.189 101.856 109.304 102.019C109.422 102.178 109.603 102.323 109.846 102.456C110.094 102.589 110.411 102.737 110.799 102.9C111.246 103.084 111.624 103.278 111.935 103.481C112.249 103.684 112.489 103.928 112.655 104.212C112.821 104.493 112.904 104.846 112.904 105.27ZM116.776 101.227C117.322 101.227 117.791 101.339 118.183 101.565C118.574 101.79 118.875 102.109 119.086 102.523C119.296 102.936 119.401 103.431 119.401 104.007V104.705H115.308C115.323 105.3 115.481 105.758 115.784 106.079C116.091 106.4 116.519 106.561 117.069 106.561C117.461 106.561 117.812 106.524 118.122 106.45C118.436 106.372 118.759 106.26 119.091 106.112V107.17C118.785 107.314 118.473 107.419 118.155 107.486C117.837 107.552 117.457 107.586 117.014 107.586C116.412 107.586 115.882 107.469 115.424 107.237C114.97 107 114.614 106.649 114.355 106.184C114.1 105.719 113.973 105.141 113.973 104.45C113.973 103.764 114.089 103.18 114.322 102.7C114.555 102.22 114.881 101.854 115.302 101.603C115.723 101.352 116.214 101.227 116.776 101.227ZM116.776 102.207C116.366 102.207 116.034 102.34 115.779 102.606C115.528 102.872 115.38 103.261 115.336 103.775H118.127C118.124 103.468 118.072 103.197 117.972 102.96C117.876 102.724 117.728 102.539 117.529 102.407C117.333 102.274 117.082 102.207 116.776 102.207ZM123.976 101.227C124.08 101.227 124.192 101.232 124.314 101.243C124.436 101.254 124.541 101.269 124.63 101.288L124.508 102.506C124.431 102.484 124.335 102.467 124.22 102.456C124.109 102.445 124.01 102.44 123.921 102.44C123.688 102.44 123.467 102.479 123.256 102.556C123.046 102.63 122.859 102.744 122.697 102.9C122.534 103.051 122.407 103.241 122.315 103.47C122.222 103.699 122.176 103.965 122.176 104.268V107.475H120.869V101.343H121.888L122.066 102.423H122.126C122.248 102.205 122.4 102.006 122.581 101.825C122.762 101.644 122.968 101.5 123.201 101.393C123.437 101.282 123.696 101.227 123.976 101.227ZM127.167 107.475L124.835 101.343H126.214L127.477 104.943C127.558 105.172 127.632 105.42 127.699 105.686C127.765 105.952 127.811 106.175 127.837 106.356H127.881C127.907 106.168 127.957 105.942 128.031 105.68C128.105 105.414 128.181 105.169 128.258 104.943L129.521 101.343H130.895L128.563 107.475H127.167ZM133.127 101.343V107.475H131.825V101.343H133.127ZM132.484 98.9945C132.684 98.9945 132.856 99.048 133 99.1551C133.147 99.2622 133.221 99.4469 133.221 99.709C133.221 99.9675 133.147 100.152 133 100.263C132.856 100.37 132.684 100.424 132.484 100.424C132.278 100.424 132.102 100.37 131.958 100.263C131.818 100.152 131.748 99.9675 131.748 99.709C131.748 99.4469 131.818 99.2622 131.958 99.1551C132.102 99.048 132.278 98.9945 132.484 98.9945ZM137.464 107.586C136.884 107.586 136.382 107.473 135.957 107.248C135.533 107.022 135.206 106.677 134.977 106.212C134.748 105.747 134.634 105.156 134.634 104.439C134.634 103.693 134.759 103.084 135.01 102.611C135.261 102.139 135.608 101.79 136.052 101.565C136.498 101.339 137.01 101.227 137.586 101.227C137.951 101.227 138.282 101.264 138.577 101.338C138.876 101.408 139.129 101.494 139.336 101.598L138.948 102.639C138.723 102.547 138.492 102.469 138.256 102.407C138.02 102.344 137.793 102.312 137.575 102.312C137.217 102.312 136.917 102.392 136.677 102.551C136.441 102.709 136.264 102.946 136.146 103.26C136.031 103.573 135.974 103.963 135.974 104.428C135.974 104.879 136.033 105.259 136.151 105.569C136.269 105.876 136.445 106.108 136.677 106.267C136.91 106.422 137.196 106.5 137.536 106.5C137.872 106.5 138.173 106.459 138.439 106.378C138.705 106.297 138.956 106.192 139.192 106.062V107.192C138.96 107.325 138.71 107.423 138.444 107.486C138.179 107.552 137.852 107.586 137.464 107.586ZM143.075 101.227C143.622 101.227 144.09 101.339 144.482 101.565C144.873 101.79 145.174 102.109 145.385 102.523C145.595 102.936 145.7 103.431 145.7 104.007V104.705H141.607C141.622 105.3 141.781 105.758 142.084 106.079C142.39 106.4 142.818 106.561 143.369 106.561C143.76 106.561 144.111 106.524 144.421 106.45C144.735 106.372 145.058 106.26 145.39 106.112V107.17C145.084 107.314 144.772 107.419 144.454 107.486C144.137 107.552 143.756 107.586 143.313 107.586C142.711 107.586 142.181 107.469 141.723 107.237C141.269 107 140.913 106.649 140.654 106.184C140.4 105.719 140.272 105.141 140.272 104.45C140.272 103.764 140.389 103.18 140.621 102.7C140.854 102.22 141.181 101.854 141.602 101.603C142.023 101.352 142.514 101.227 143.075 101.227ZM143.075 102.207C142.665 102.207 142.333 102.34 142.078 102.606C141.827 102.872 141.679 103.261 141.635 103.775H144.427C144.423 103.468 144.371 103.197 144.271 102.96C144.175 102.724 144.028 102.539 143.828 102.407C143.633 102.274 143.381 102.207 143.075 102.207ZM151.289 105.724C151.289 106.127 151.192 106.467 150.996 106.744C150.8 107.021 150.514 107.231 150.137 107.375C149.764 107.515 149.306 107.586 148.764 107.586C148.335 107.586 147.966 107.554 147.656 107.491C147.349 107.432 147.059 107.34 146.786 107.214V106.09C147.078 106.227 147.405 106.345 147.767 106.444C148.132 106.544 148.477 106.594 148.802 106.594C149.231 106.594 149.539 106.528 149.727 106.395C149.916 106.258 150.01 106.077 150.01 105.852C150.01 105.719 149.971 105.601 149.894 105.497C149.82 105.39 149.679 105.281 149.473 105.171C149.269 105.056 148.97 104.919 148.575 104.761C148.188 104.606 147.861 104.45 147.595 104.295C147.329 104.14 147.128 103.954 146.991 103.736C146.854 103.514 146.786 103.232 146.786 102.888C146.786 102.346 147 101.934 147.429 101.653C147.861 101.369 148.431 101.227 149.14 101.227C149.517 101.227 149.871 101.265 150.204 101.343C150.54 101.417 150.868 101.526 151.19 101.67L150.78 102.65C150.503 102.528 150.224 102.429 149.943 102.351C149.666 102.27 149.384 102.229 149.096 102.229C148.76 102.229 148.503 102.281 148.326 102.384C148.152 102.488 148.066 102.635 148.066 102.827C148.066 102.972 148.108 103.093 148.193 103.193C148.278 103.293 148.424 103.392 148.631 103.492C148.841 103.592 149.133 103.716 149.506 103.863C149.871 104.004 150.187 104.151 150.453 104.306C150.723 104.458 150.929 104.644 151.073 104.866C151.217 105.087 151.289 105.374 151.289 105.724Z" fill="#231656"/>
<path d="M73.3011 143.475H64.7789V141.682L67.8392 138.588C68.7454 137.66 69.3374 137.018 69.6154 136.662C69.8933 136.301 70.0935 135.967 70.2158 135.661C70.3381 135.356 70.3992 135.039 70.3992 134.711C70.3992 134.222 70.263 133.857 69.9906 133.618C69.7238 133.379 69.3652 133.26 68.9149 133.26C68.4424 133.26 67.9838 133.368 67.539 133.585C67.0943 133.802 66.6301 134.11 66.1465 134.511L64.7456 132.851C65.346 132.34 65.8435 131.978 66.2382 131.767C66.6329 131.556 67.0637 131.395 67.5307 131.284C67.9977 131.167 68.5202 131.108 69.0984 131.108C69.86 131.108 70.5326 131.247 71.1164 131.525C71.7001 131.803 72.1531 132.192 72.4756 132.693C72.798 133.193 72.9592 133.766 72.9592 134.411C72.9592 134.972 72.8591 135.5 72.659 135.995C72.4644 136.484 72.1587 136.987 71.7418 137.504C71.3304 138.021 70.6021 138.758 69.557 139.714L67.9893 141.19V141.307H73.3011V143.475ZM82.9907 137.379C82.9907 139.508 82.6404 141.084 81.94 142.107C81.2451 143.13 80.1722 143.642 78.7212 143.642C77.3148 143.642 76.253 143.113 75.5359 142.057C74.8243 141.001 74.4685 139.442 74.4685 137.379C74.4685 135.228 74.816 133.643 75.5108 132.626C76.2057 131.603 77.2759 131.092 78.7212 131.092C80.1277 131.092 81.1895 131.625 81.9066 132.693C82.6293 133.76 82.9907 135.322 82.9907 137.379ZM77.0285 137.379C77.0285 138.875 77.1564 139.947 77.4121 140.598C77.6733 141.243 78.1097 141.565 78.7212 141.565C79.3216 141.565 79.7552 141.237 80.0221 140.581C80.2889 139.925 80.4223 138.858 80.4223 137.379C80.4223 135.884 80.2861 134.811 80.0137 134.16C79.7469 133.504 79.3161 133.176 78.7212 133.176C78.1153 133.176 77.6817 133.504 77.4204 134.16C77.1591 134.811 77.0285 135.884 77.0285 137.379ZM92.8137 143.475H84.2915V141.682L87.3518 138.588C88.2579 137.66 88.85 137.018 89.1279 136.662C89.4059 136.301 89.606 135.967 89.7283 135.661C89.8506 135.356 89.9118 135.039 89.9118 134.711C89.9118 134.222 89.7756 133.857 89.5032 133.618C89.2363 133.379 88.8778 133.26 88.4275 133.26C87.955 133.26 87.4963 133.368 87.0516 133.585C86.6069 133.802 86.1427 134.11 85.659 134.511L84.2581 132.851C84.8585 132.34 85.3561 131.978 85.7508 131.767C86.1455 131.556 86.5763 131.395 87.0433 131.284C87.5102 131.167 88.0328 131.108 88.6109 131.108C89.3725 131.108 90.0452 131.247 90.6289 131.525C91.2126 131.803 91.6657 132.192 91.9881 132.693C92.3105 133.193 92.4718 133.766 92.4718 134.411C92.4718 134.972 92.3717 135.5 92.1716 135.995C91.977 136.484 91.6712 136.987 91.2543 137.504C90.8429 138.021 90.1147 138.758 89.0696 139.714L87.5019 141.19V141.307H92.8137V143.475ZM102.57 143.475H94.0478V141.682L97.1081 138.588C98.0142 137.66 98.6063 137.018 98.8842 136.662C99.1622 136.301 99.3623 135.967 99.4846 135.661C99.6069 135.356 99.6681 135.039 99.6681 134.711C99.6681 134.222 99.5319 133.857 99.2595 133.618C98.9926 133.379 98.6341 133.26 98.1838 133.26C97.7112 133.26 97.2526 133.368 96.8079 133.585C96.3632 133.802 95.899 134.11 95.4153 134.511L94.0144 132.851C94.6148 132.34 95.1124 131.978 95.5071 131.767C95.9018 131.556 96.3326 131.395 96.7996 131.284C97.2665 131.167 97.7891 131.108 98.3672 131.108C99.1288 131.108 99.8015 131.247 100.385 131.525C100.969 131.803 101.422 132.192 101.744 132.693C102.067 133.193 102.228 133.766 102.228 134.411C102.228 134.972 102.128 135.5 101.928 135.995C101.733 136.484 101.428 136.987 101.011 137.504C100.599 138.021 99.871 138.758 98.8259 139.714L97.2582 141.19V141.307H102.57V143.475ZM120.156 137.362C120.156 138.797 119.901 140 119.389 140.973C118.883 141.94 118.138 142.649 117.154 143.099L120.09 146.377H116.779L114.544 143.642H114.353C112.485 143.642 111.05 143.099 110.05 142.015C109.049 140.931 108.549 139.375 108.549 137.346C108.549 135.317 109.049 133.768 110.05 132.701C111.056 131.628 112.496 131.092 114.369 131.092C116.243 131.092 117.674 131.631 118.664 132.709C119.659 133.788 120.156 135.339 120.156 137.362ZM111.259 137.362C111.259 138.724 111.517 139.75 112.034 140.439C112.551 141.129 113.324 141.473 114.353 141.473C116.415 141.473 117.446 140.103 117.446 137.362C117.446 134.616 116.421 133.243 114.369 133.243C113.341 133.243 112.565 133.591 112.043 134.285C111.52 134.975 111.259 136 111.259 137.362ZM130.354 143.475H121.832V141.682L124.893 138.588C125.799 137.66 126.391 137.018 126.669 136.662C126.947 136.301 127.147 135.967 127.269 135.661C127.391 135.356 127.453 135.039 127.453 134.711C127.453 134.222 127.316 133.857 127.044 133.618C126.777 133.379 126.419 133.26 125.968 133.26C125.496 133.26 125.037 133.368 124.592 133.585C124.148 133.802 123.684 134.11 123.2 134.511L121.799 132.851C122.399 132.34 122.897 131.978 123.292 131.767C123.686 131.556 124.117 131.395 124.584 131.284C125.051 131.167 125.574 131.108 126.152 131.108C126.913 131.108 127.586 131.247 128.17 131.525C128.753 131.803 129.207 132.192 129.529 132.693C129.851 133.193 130.013 133.766 130.013 134.411C130.013 134.972 129.913 135.5 129.712 135.995C129.518 136.484 129.212 136.987 128.795 137.504C128.384 138.021 127.656 138.758 126.61 139.714L125.043 141.19V141.307H130.354V143.475ZM80.371 159.475L79.6036 157.296H76.6039L75.8365 159.475H74.4788L77.3981 151.597H78.8255L81.7394 159.475H80.371ZM79.2709 156.191L78.525 154.044C78.4964 153.951 78.4552 153.821 78.4016 153.652C78.3479 153.481 78.2942 153.307 78.2406 153.132C78.1869 152.953 78.1422 152.803 78.1064 152.681C78.0706 152.828 78.0259 152.992 77.9723 153.175C77.9222 153.354 77.8721 153.522 77.822 153.679C77.7755 153.837 77.7397 153.958 77.7147 154.044L76.9634 156.191H79.2709ZM92.0533 151.629L90.0034 159.475H88.5974L87.2881 154.774C87.2559 154.659 87.2201 154.523 87.1807 154.366C87.1414 154.209 87.102 154.048 87.0627 153.883C87.0269 153.719 86.9947 153.568 86.9661 153.432C86.941 153.293 86.9231 153.186 86.9124 153.11C86.9053 153.186 86.8892 153.291 86.8641 153.427C86.8391 153.563 86.8087 153.713 86.7729 153.878C86.7407 154.039 86.7049 154.2 86.6656 154.361C86.6262 154.518 86.5904 154.658 86.5582 154.779L85.2703 159.475H83.8698L81.8252 151.629H83.1185L84.2508 156.228C84.2865 156.375 84.3223 156.534 84.3581 156.706C84.3974 156.874 84.4332 157.044 84.4654 157.216C84.5012 157.387 84.5334 157.555 84.562 157.72C84.5906 157.881 84.6139 158.028 84.6318 158.16C84.6497 158.024 84.6729 157.874 84.7015 157.709C84.7301 157.541 84.7606 157.371 84.7928 157.199C84.8285 157.024 84.8643 156.856 84.9001 156.695C84.9394 156.534 84.9788 156.389 85.0181 156.26L86.2953 151.629H87.551L88.855 156.276C88.8943 156.409 88.9319 156.557 88.9677 156.722C89.007 156.886 89.0446 157.055 89.0804 157.226C89.1161 157.398 89.1483 157.564 89.177 157.725C89.2056 157.886 89.2288 158.031 89.2467 158.16C89.2718 157.985 89.304 157.784 89.3433 157.559C89.3827 157.334 89.4274 157.105 89.4775 156.872C89.5276 156.64 89.5776 156.425 89.6277 156.228L90.7546 151.629H92.0533ZM98.0259 159.475L97.2585 157.296H94.2588L93.4914 159.475H92.1338L95.053 151.597H96.4804L99.3943 159.475H98.0259ZM96.9258 156.191L96.1799 154.044C96.1513 153.951 96.1101 153.821 96.0565 153.652C96.0028 153.481 95.9492 153.307 95.8955 153.132C95.8418 152.953 95.7971 152.803 95.7613 152.681C95.7256 152.828 95.6808 152.992 95.6272 153.175C95.5771 153.354 95.527 153.522 95.4769 153.679C95.4304 153.837 95.3946 153.958 95.3696 154.044L94.6183 156.191H96.9258ZM102.635 151.629C103.312 151.629 103.87 151.712 104.31 151.876C104.753 152.041 105.082 152.291 105.297 152.627C105.515 152.964 105.624 153.391 105.624 153.91C105.624 154.296 105.553 154.625 105.41 154.897C105.267 155.169 105.079 155.395 104.846 155.573C104.614 155.752 104.365 155.895 104.1 156.003L106.327 159.475H104.873L102.979 156.33H101.718V159.475H100.43V151.629H102.635ZM102.55 152.703H101.718V155.268H102.609C103.206 155.268 103.639 155.157 103.907 154.935C104.179 154.713 104.315 154.386 104.315 153.953C104.315 153.499 104.17 153.177 103.88 152.987C103.594 152.797 103.151 152.703 102.55 152.703ZM113.819 155.477C113.819 156.361 113.654 157.099 113.325 157.693C112.996 158.283 112.518 158.729 111.892 159.029C111.266 159.326 110.511 159.475 109.628 159.475H107.449V151.629H109.864C110.676 151.629 111.377 151.776 111.967 152.069C112.558 152.359 113.014 152.79 113.336 153.363C113.658 153.931 113.819 154.636 113.819 155.477ZM112.477 155.514C112.477 154.871 112.375 154.341 112.171 153.926C111.971 153.511 111.674 153.203 111.28 153.003C110.891 152.799 110.409 152.697 109.837 152.697H108.737V158.396H109.649C110.597 158.396 111.306 158.155 111.774 157.672C112.243 157.189 112.477 156.47 112.477 155.514ZM120.038 157.339C120.038 157.804 119.924 158.205 119.695 158.541C119.469 158.877 119.144 159.135 118.718 159.314C118.296 159.493 117.792 159.582 117.205 159.582C116.919 159.582 116.645 159.566 116.384 159.534C116.123 159.502 115.876 159.455 115.643 159.394C115.414 159.33 115.205 159.253 115.015 159.163V157.951C115.334 158.09 115.69 158.217 116.083 158.332C116.477 158.443 116.877 158.498 117.285 158.498C117.618 158.498 117.893 158.455 118.112 158.369C118.334 158.28 118.498 158.155 118.605 157.994C118.713 157.829 118.766 157.638 118.766 157.419C118.766 157.187 118.704 156.99 118.579 156.829C118.453 156.668 118.264 156.522 118.01 156.389C117.759 156.253 117.445 156.108 117.065 155.954C116.808 155.851 116.561 155.733 116.325 155.6C116.092 155.468 115.885 155.312 115.702 155.133C115.52 154.955 115.375 154.743 115.268 154.5C115.164 154.253 115.112 153.964 115.112 153.631C115.112 153.187 115.218 152.808 115.429 152.493C115.643 152.178 115.944 151.937 116.33 151.769C116.72 151.601 117.174 151.517 117.693 151.517C118.105 151.517 118.491 151.56 118.852 151.645C119.217 151.731 119.575 151.853 119.926 152.01L119.518 153.046C119.196 152.914 118.883 152.808 118.579 152.729C118.278 152.651 117.97 152.611 117.656 152.611C117.384 152.611 117.153 152.652 116.963 152.735C116.774 152.817 116.629 152.933 116.529 153.084C116.432 153.23 116.384 153.406 116.384 153.609C116.384 153.838 116.439 154.032 116.55 154.189C116.665 154.343 116.84 154.484 117.076 154.613C117.316 154.742 117.623 154.885 117.999 155.042C118.432 155.221 118.799 155.409 119.099 155.606C119.403 155.802 119.636 156.039 119.797 156.314C119.958 156.586 120.038 156.928 120.038 157.339Z" fill="#231656"/>
<path d="M54.3048 150.376C53.8633 149.738 53.4954 149.199 53.2256 148.855C53.0784 148.684 52.9803 148.536 52.9067 148.438C52.8331 148.34 52.8086 148.291 52.8086 148.291C52.8086 148.291 52.6859 148.512 52.4897 148.904C52.318 149.297 52.0727 149.836 51.8029 150.523C51.2878 151.897 50.7481 153.81 50.6009 155.944C50.5028 157.023 50.6255 158.078 50.8217 159.158C51.0425 160.237 51.4104 161.316 51.95 162.322C52.0972 162.567 52.2444 162.812 52.3916 163.082C52.5633 163.327 52.7595 163.548 52.9312 163.769C53.3237 164.211 53.7652 164.628 54.2558 165.02C55.2369 165.805 56.4143 166.443 57.8125 166.909C59.5786 165.388 59.9711 163.45 59.6767 161.414C59.5295 160.409 59.2106 159.378 58.7691 158.373C58.671 158.127 58.5484 157.882 58.4257 157.612C58.3276 157.367 58.205 157.097 58.1068 156.852C57.8616 156.337 57.6163 155.846 57.371 155.356C56.8559 154.374 56.2672 153.467 55.7275 152.657C55.2124 151.799 54.7464 151.014 54.3048 150.376Z" fill="#FF5D45"/>
<path d="M46.4838 146.23L46.312 145.47C46.0668 144.464 45.7724 143.507 45.4535 142.649C45.3064 142.232 45.1347 141.815 44.9875 141.422C44.8648 141.03 44.7422 140.662 44.6195 140.319C44.129 138.969 43.7365 138.111 43.7365 138.111C43.7365 138.111 43.0742 138.847 42.2402 140.098C41.8232 140.711 41.3572 141.471 40.9157 142.305C40.4741 143.139 40.0326 144.096 39.7628 145.077C39.493 146.058 39.2967 147.089 39.2231 148.168C39.1986 148.708 39.1986 149.223 39.2477 149.762C39.2722 150.032 39.2967 150.302 39.3458 150.572C39.3948 150.817 39.4684 151.087 39.5665 151.332C39.91 152.338 40.4251 153.319 41.1609 154.227C41.5289 154.668 41.9459 155.11 42.461 155.478C42.9761 155.845 43.5648 156.189 44.2025 156.483C46.2385 155.257 46.9743 153.466 47.097 151.553C47.1951 150.572 47.146 149.542 46.9743 148.511C46.9007 147.996 46.7781 147.506 46.6555 146.99C46.6309 146.721 46.5573 146.475 46.4838 146.23Z" fill="#FF5D45"/>
<path d="M31.7657 143.777C32.1582 144.194 32.6242 144.611 33.1393 144.979C35.347 144.12 36.5244 142.526 37.1131 140.711C37.2602 140.269 37.3829 139.779 37.5055 139.313C37.6036 138.822 37.7018 138.331 37.7508 137.841C37.8735 136.835 37.8489 135.854 37.8244 134.897C37.8489 133.916 37.7999 132.959 37.7263 132.076C37.6527 131.193 37.5055 130.433 37.481 129.722C37.3583 128.348 37.1621 127.465 37.1621 127.465C37.1621 127.465 36.3527 128.078 35.2734 129.157C34.7092 129.697 34.096 130.335 33.4828 131.071C33.1639 131.439 32.845 131.831 32.5752 132.248C32.2808 132.665 32.011 133.082 31.7657 133.524C31.2506 134.407 30.8091 135.388 30.4902 136.369C30.3185 136.86 30.1959 137.375 30.0977 137.89C30.0487 138.405 30.0242 138.896 30.0487 139.411C30.0977 140.416 30.343 141.447 30.8336 142.403C31.0298 142.894 31.3733 143.335 31.7657 143.777Z" fill="#FF5D45"/>
<path d="M23.5722 131.047C23.842 131.513 24.1854 131.954 24.5778 132.396C26.9081 131.905 28.4044 130.556 29.4101 128.937C29.5327 128.741 29.6554 128.52 29.778 128.324C29.9007 128.103 30.0233 127.882 30.1214 127.662C30.3422 127.22 30.5384 126.754 30.7101 126.288C31.0535 125.356 31.2988 124.399 31.4705 123.443C31.6913 122.486 31.8875 121.554 31.9856 120.695C32.0592 120.254 32.0837 119.861 32.1328 119.469C32.1573 119.077 32.1819 118.709 32.2309 118.365C32.4026 116.992 32.4272 116.109 32.4272 116.109C32.4272 116.109 31.5196 116.599 30.2441 117.507C29.6063 117.948 28.8704 118.488 28.11 119.126C27.3496 119.763 26.6383 120.475 25.9269 121.26C25.2401 122.045 24.5778 122.903 24.0382 123.835C23.7684 124.301 23.5231 124.767 23.3269 125.233C23.1552 125.699 23.008 126.19 22.9099 126.681C22.7136 127.662 22.7136 128.643 22.9344 129.624C23.0816 130.115 23.3023 130.581 23.5722 131.047Z" fill="#FF5D45"/>
<path d="M25.4611 115.446C26.0988 114.735 26.7121 113.901 27.2272 113.018C27.7423 112.159 28.1593 111.227 28.5272 110.344C29.2876 108.529 29.8763 106.763 30.1952 105.438C30.5877 104.114 30.7594 103.206 30.7594 103.206C30.7594 103.206 29.8027 103.599 28.4291 104.335C27.7423 104.702 26.9328 105.168 26.1234 105.684C25.3139 106.223 24.4799 106.836 23.6705 107.523C22.0515 108.897 20.4817 110.565 19.7703 112.38C19.3779 113.288 19.1816 114.244 19.1816 115.225C19.2062 116.182 19.5496 117.163 20.1137 118.095C22.4195 117.973 24.1365 116.893 25.4611 115.446Z" fill="#FF5D45"/>
<path d="M22.4192 103.133C22.7871 102.814 23.155 102.471 23.4984 102.103C23.8418 101.735 24.1852 101.342 24.5041 100.95C25.1419 100.141 25.706 99.3066 26.1966 98.4481C26.4419 98.0311 26.6627 97.6141 26.8834 97.1725C27.1042 96.731 27.325 96.314 27.5212 95.897C27.9137 95.063 28.2325 94.3026 28.4778 93.6404C28.9684 92.3158 29.2628 91.4327 29.2628 91.4327C29.2628 91.4327 28.2816 91.7516 26.8834 92.4139C25.4853 93.0517 23.6456 94.0083 21.8795 95.2347C20.9965 95.848 20.1379 96.5348 19.353 97.2707C18.5926 98.0065 17.9303 98.7915 17.4152 99.6254C16.9001 100.459 16.5322 101.367 16.385 102.299C16.2869 103.231 16.385 104.188 16.7775 105.169C19.0587 105.243 20.8983 104.409 22.4192 103.133Z" fill="#FF5D45"/>
<path d="M15.8197 91.3099C17.9537 91.5797 19.8425 90.8929 21.4369 89.74C22.2463 89.1758 22.9822 88.489 23.6445 87.7286C24.3558 86.9927 24.9691 86.2078 25.5332 85.4229C26.0974 84.6379 26.5634 83.8285 27.054 83.0926C27.5201 82.3567 27.9125 81.6945 28.2314 81.1058C28.5503 80.5171 28.7956 80.0265 28.9673 79.6831C29.139 79.3397 29.2371 79.1434 29.2371 79.1434C29.2371 79.1434 28.9918 79.1925 28.5748 79.3151C28.1333 79.4133 27.5691 79.6095 26.8578 79.8548C25.4596 80.3454 23.5709 81.0812 21.7312 82.1114C21.2652 82.3567 20.8236 82.6511 20.3576 82.9209C19.9161 83.2153 19.4991 83.5341 19.1066 83.853C18.2971 84.5153 17.5858 85.2266 16.9971 86.0116C15.8197 87.5814 15.3291 89.3966 15.8197 91.3099Z" fill="#FF5D45"/>
<path d="M23.0076 75.1203C24.6266 74.1636 26.221 72.8391 27.4965 71.5145C27.8153 71.1711 28.1097 70.8522 28.404 70.5088C28.7229 70.1899 29.0173 69.871 29.2871 69.5767C29.8267 68.9635 30.3173 68.3748 30.6852 67.8842C31.0532 67.3936 31.3966 66.9766 31.6174 66.7068C31.8381 66.4124 31.9608 66.2653 31.9608 66.2653C31.9608 66.2653 31.0041 66.3388 29.5324 66.6087C28.0852 66.8785 26.221 67.3445 24.3077 68.1049C23.3511 68.4729 22.3944 68.9389 21.5114 69.454C20.6529 69.9937 19.8679 70.6069 19.2056 71.2937C18.8622 71.6371 18.5679 72.0051 18.2981 72.373C18.0282 72.7409 17.8075 73.1334 17.6603 73.5504C17.366 74.3844 17.2433 75.2674 17.3905 76.1995C19.4509 76.592 21.3397 76.0769 23.0076 75.1203Z" fill="#FF5D45"/>
<path d="M36.2053 55.2517C35.4939 55.2762 34.6354 55.3252 33.7278 55.3988C32.7957 55.4969 31.8636 55.6441 30.8825 55.8649C29.9013 56.0856 28.8956 56.3555 27.939 56.7234C27.4484 56.8951 26.9823 57.0913 26.5163 57.3366C26.0748 57.5574 25.6578 57.8272 25.2653 58.097C23.72 59.2008 22.4935 60.6235 22.4199 62.4387C24.2596 63.101 26.1483 62.8557 27.8899 62.2424C29.7296 61.6292 31.4466 60.6235 32.9674 59.5688C34.5863 58.5631 35.8864 57.4593 36.8921 56.6498C37.9223 55.8403 38.5355 55.3007 38.5355 55.3007C38.5355 55.3007 37.6525 55.2026 36.2053 55.2517Z" fill="#FF5D45"/>
<path d="M45.3549 44.655C43.9567 44.5324 42.0434 44.4588 40.1056 44.6305C38.1433 44.8022 36.0338 45.1947 34.2432 46.0041C32.5507 46.8381 31.0789 48.0155 30.4902 49.6835C31.2752 50.125 32.1092 50.3703 32.9922 50.4684C33.8998 50.5665 34.8319 50.4929 35.764 50.3458C36.6961 50.1741 37.6282 49.9288 38.5603 49.5854C39.4679 49.2665 40.3509 48.874 41.2585 48.4816C43.0491 47.6966 44.5454 46.7891 45.7228 46.1022C46.9002 45.44 47.6361 44.9494 47.6361 44.9494C47.6361 44.9494 46.753 44.7777 45.3549 44.655Z" fill="#FF5D45"/>
<path d="M44.0047 34.868C42.3367 35.6529 40.8895 36.8058 40.3008 38.4247C43.2197 40.1908 47.3897 38.8662 50.7256 37.2228C52.4427 36.3888 54.0125 35.4812 55.1163 34.7698C56.2447 34.0585 56.9315 33.5434 56.9315 33.5434C56.9315 33.5434 53.522 33.0773 49.6709 33.4943C47.7331 33.666 45.6727 34.0585 44.0047 34.868Z" fill="#FF5D45"/>
<path d="M135.079 166.908C136.477 166.442 137.655 165.78 138.636 164.995C139.127 164.602 139.568 164.185 139.961 163.744C140.157 163.523 140.353 163.302 140.5 163.057C140.672 162.812 140.795 162.566 140.942 162.297C141.481 161.291 141.849 160.212 142.07 159.132C142.266 158.053 142.413 156.998 142.291 155.919C142.144 153.785 141.604 151.872 141.089 150.498C140.819 149.811 140.574 149.247 140.402 148.855C140.206 148.462 140.083 148.241 140.083 148.241C140.083 148.241 140.059 148.29 139.985 148.389C139.911 148.487 139.813 148.634 139.666 148.806C139.396 149.173 139.004 149.689 138.587 150.326C138.145 150.964 137.655 151.749 137.164 152.608C136.6 153.442 136.036 154.349 135.521 155.306C135.251 155.796 135.006 156.287 134.785 156.802C134.662 157.047 134.564 157.317 134.442 157.562C134.319 157.808 134.196 158.053 134.098 158.323C133.657 159.328 133.338 160.359 133.191 161.364C132.921 163.449 133.313 165.412 135.079 166.908Z" fill="#FF5D45"/>
<path d="M150.685 140.122C149.851 138.895 149.189 138.135 149.189 138.135C149.189 138.135 148.772 138.969 148.306 140.343C148.183 140.686 148.061 141.054 147.938 141.446C147.791 141.839 147.619 142.231 147.472 142.673C147.153 143.531 146.859 144.488 146.613 145.494L146.442 146.254C146.368 146.499 146.294 146.745 146.245 146.99C146.123 147.48 146.025 147.996 145.927 148.511C145.755 149.516 145.706 150.547 145.804 151.552C145.951 153.49 146.687 155.256 148.698 156.483C149.336 156.188 149.9 155.845 150.44 155.477C150.955 155.109 151.347 154.667 151.74 154.226C152.476 153.343 153.015 152.362 153.334 151.332C153.408 151.086 153.482 150.816 153.555 150.571C153.604 150.301 153.629 150.031 153.653 149.762C153.702 149.222 153.702 148.682 153.678 148.167C153.629 147.113 153.432 146.058 153.138 145.077C152.868 144.12 152.427 143.139 151.985 142.305C151.568 141.471 151.102 140.735 150.685 140.122Z" fill="#FF5D45"/>
<path d="M161.185 133.524C160.915 133.082 160.646 132.641 160.376 132.248C160.106 131.831 159.763 131.439 159.468 131.071C158.855 130.335 158.217 129.673 157.678 129.157C156.574 128.103 155.764 127.465 155.764 127.465C155.764 127.465 155.593 128.348 155.445 129.722C155.421 130.433 155.274 131.193 155.2 132.076C155.127 132.959 155.078 133.892 155.102 134.897C155.078 135.854 155.053 136.86 155.176 137.841C155.225 138.331 155.323 138.822 155.421 139.313C155.544 139.803 155.666 140.269 155.813 140.711C156.402 142.501 157.579 144.096 159.787 144.979C160.327 144.611 160.768 144.194 161.185 143.777C161.578 143.36 161.921 142.894 162.142 142.428C162.608 141.471 162.853 140.465 162.927 139.435C162.951 138.92 162.951 138.429 162.878 137.914C162.78 137.399 162.657 136.884 162.485 136.394C162.142 135.363 161.7 134.407 161.185 133.524Z" fill="#FF5D45"/>
<path d="M163.51 128.937C164.516 130.556 166.012 131.905 168.343 132.396C168.76 131.954 169.078 131.513 169.348 131.047C169.618 130.581 169.839 130.115 169.937 129.624C170.158 128.643 170.133 127.637 169.962 126.68C169.863 126.19 169.741 125.699 169.569 125.233C169.373 124.767 169.128 124.277 168.858 123.835C168.318 122.927 167.68 122.069 166.969 121.284C166.258 120.499 165.571 119.788 164.786 119.15C164.025 118.512 163.29 117.973 162.652 117.531C161.376 116.624 160.469 116.133 160.469 116.133C160.469 116.133 160.493 117.016 160.64 118.39C160.69 118.733 160.714 119.101 160.763 119.493C160.812 119.886 160.837 120.303 160.91 120.72C161.033 121.578 161.205 122.511 161.425 123.467C161.597 124.399 161.842 125.356 162.186 126.288C162.358 126.754 162.554 127.22 162.774 127.662C162.897 127.882 162.995 128.103 163.118 128.324C163.265 128.52 163.388 128.741 163.51 128.937Z" fill="#FF5D45"/>
<path d="M173.759 115.25C173.759 114.293 173.539 113.337 173.171 112.429C172.459 110.614 170.889 108.922 169.271 107.572C168.461 106.886 167.603 106.272 166.818 105.733C166.008 105.193 165.199 104.727 164.512 104.359C163.138 103.623 162.182 103.231 162.182 103.231C162.182 103.231 162.353 104.114 162.746 105.463C163.065 106.788 163.629 108.554 164.414 110.369C164.757 111.276 165.199 112.184 165.714 113.042C166.229 113.901 166.842 114.735 167.48 115.471C168.78 116.918 170.522 117.997 172.827 118.145C173.391 117.188 173.71 116.207 173.759 115.25Z" fill="#FF5D45"/>
<path d="M176.516 102.274C176.394 101.342 176.001 100.459 175.486 99.6003C174.971 98.7663 174.309 97.9569 173.548 97.2455C172.788 96.5096 171.905 95.8228 171.022 95.2096C169.256 93.9831 167.416 93.0265 166.018 92.3888C164.62 91.751 163.639 91.4076 163.639 91.4076C163.639 91.4076 163.933 92.2661 164.424 93.6152C164.669 94.2775 165.012 95.0624 165.38 95.8719C165.576 96.2889 165.773 96.7059 166.018 97.1474C166.239 97.5644 166.46 97.9814 166.705 98.4229C167.195 99.2814 167.76 100.14 168.397 100.925C168.716 101.317 169.06 101.71 169.403 102.078C169.746 102.446 170.09 102.789 170.482 103.108C172.003 104.383 173.843 105.217 176.075 105.119C176.492 104.163 176.615 103.206 176.516 102.274Z" fill="#FF5D45"/>
<path d="M175.899 86.0116C175.31 85.2266 174.574 84.5153 173.79 83.853C173.397 83.5341 172.98 83.2153 172.539 82.9209C172.097 82.6266 171.631 82.3567 171.189 82.1114C169.35 81.0812 167.486 80.3454 166.063 79.8548C165.352 79.6095 164.763 79.4378 164.346 79.3151C163.904 79.217 163.684 79.1434 163.684 79.1434C163.684 79.1434 163.782 79.3397 163.953 79.6831C164.125 80.0265 164.37 80.5171 164.665 81.1058C164.984 81.6945 165.376 82.3813 165.842 83.0926C166.333 83.804 166.774 84.6379 167.363 85.4229C167.927 86.2078 168.565 87.0173 169.276 87.7286C169.963 88.4645 170.674 89.1513 171.484 89.74C173.078 90.8929 174.967 91.5797 177.101 91.3099C177.592 89.3966 177.101 87.5814 175.899 86.0116Z" fill="#FF5D45"/>
<path d="M174.594 72.3731C174.325 72.0052 174.03 71.6372 173.687 71.2938C173.024 70.607 172.215 69.9938 171.381 69.4542C170.498 68.9145 169.541 68.473 168.585 68.1051C166.671 67.3447 164.807 66.8541 163.36 66.6088C161.913 66.339 160.932 66.2654 160.932 66.2654C160.932 66.2654 161.054 66.4371 161.275 66.7069C161.496 66.9767 161.839 67.3937 162.207 67.8843C162.6 68.3749 163.066 68.9636 163.605 69.5768C163.875 69.8712 164.169 70.2146 164.488 70.5089C164.783 70.8523 165.077 71.1712 165.396 71.5146C166.671 72.8637 168.266 74.1883 169.885 75.1449C171.553 76.077 173.441 76.6167 175.477 76.2242C175.625 75.2921 175.502 74.409 175.208 73.575C175.085 73.1335 174.864 72.7411 174.594 72.3731Z" fill="#FF5D45"/>
<path d="M167.656 58.0723C167.264 57.8025 166.871 57.5327 166.405 57.3119C165.939 57.0912 165.473 56.8949 164.982 56.6987C164.026 56.3308 163.02 56.0609 162.039 55.8402C161.058 55.6194 160.126 55.4722 159.194 55.3741C158.261 55.276 157.427 55.2269 156.716 55.2269C155.293 55.1779 154.361 55.2515 154.361 55.2515C154.361 55.2515 154.975 55.8156 156.005 56.6006C157.01 57.41 158.311 58.4893 159.929 59.5195C161.426 60.5743 163.143 61.58 165.007 62.1932C166.773 62.831 168.637 63.0517 170.477 62.3894C170.428 60.5988 169.177 59.1761 167.656 58.0723Z" fill="#FF5D45"/>
<path d="M158.679 45.9797C156.888 45.1948 154.779 44.7778 152.816 44.6061C150.879 44.4344 148.941 44.508 147.567 44.6306C146.194 44.7533 145.311 44.9004 145.311 44.9004C145.311 44.9004 146.046 45.391 147.224 46.0533C148.401 46.7401 149.897 47.6477 151.688 48.4326C152.596 48.8251 153.479 49.2176 154.386 49.5364C155.294 49.8553 156.251 50.1251 157.183 50.2968C158.115 50.4685 159.047 50.5176 159.954 50.4195C160.837 50.3214 161.671 50.1006 162.456 49.6345C161.819 48.0156 160.371 46.8137 158.679 45.9797Z" fill="#FF5D45"/>
<path d="M142.194 37.1983C145.53 38.8663 149.7 40.1664 152.619 38.4003C152.006 36.7814 150.583 35.653 148.915 34.8436C147.247 34.0341 145.187 33.6416 143.273 33.4454C139.422 33.0529 135.988 33.4945 135.988 33.4945C135.988 33.4945 136.675 34.0096 137.803 34.7209C138.907 35.4568 140.477 36.3889 142.194 37.1983Z" fill="#FF5D45"/>
<path d="M178.719 119.861C180.828 120.229 182.815 119.665 184.63 118.463C185.612 117.85 186.421 117.04 187.23 116.157C188.015 115.274 188.751 114.293 189.414 113.287C190.665 111.301 191.523 109.191 192.136 107.621C192.676 106.051 192.921 104.972 192.921 104.972C192.921 104.972 191.94 105.414 190.493 106.199C189.782 106.591 188.972 107.057 188.04 107.597C187.132 108.136 186.176 108.75 185.219 109.412C183.33 110.736 181.564 112.282 180.191 114.023C180.117 114.097 180.068 114.195 180.019 114.269C180.681 111.202 181.221 108.087 181.638 104.972C183.404 104.898 184.949 104.163 186.274 103.034C186.666 102.691 187.059 102.298 187.427 101.906C187.77 101.489 188.089 101.072 188.408 100.606C189.021 99.6983 189.561 98.7171 190.027 97.7114C190.248 97.2209 190.468 96.7057 190.665 96.2152C190.836 95.7246 191.008 95.2585 191.155 94.7925C191.449 93.8604 191.695 93.0019 191.866 92.2415C192.234 90.7452 192.333 89.7395 192.333 89.7395C192.333 89.7395 191.449 90.2301 190.125 91.0395C188.8 91.849 187.083 93.0264 185.464 94.4245C184.655 95.1114 183.87 95.8718 183.159 96.6812C182.864 97.0246 182.57 97.368 182.3 97.7114C182.447 95.0868 182.496 92.4377 182.398 89.8131C183.649 89.4697 184.729 88.7829 185.661 87.8262C186.347 87.1149 186.961 86.2809 187.476 85.3978C187.966 84.4903 188.383 83.5091 188.702 82.5279C189.021 81.5468 189.34 80.5656 189.512 79.609C189.683 78.6769 189.806 77.7693 189.88 77.0089C189.953 76.2485 190.002 75.6107 190.027 75.1692C190.051 74.7277 190.027 74.4579 190.027 74.4579C190.027 74.4579 189.831 74.605 189.487 74.8503C189.144 75.0956 188.653 75.4636 188.064 75.9296C186.912 76.8617 185.391 78.1372 183.993 79.609C183.649 79.9769 183.306 80.3694 182.987 80.7618C182.644 81.1543 182.325 81.5468 182.006 81.9638C181.908 82.0864 181.859 82.1845 181.76 82.3072C181.417 79.7807 180.951 77.2787 180.338 74.8013C181.515 74.3598 182.472 73.5748 183.208 72.5691C184.385 71.0729 184.925 69.0369 185.219 67.001C185.293 66.4859 185.366 65.9953 185.391 65.4802C185.391 64.9897 185.391 64.4745 185.391 64.0085C185.366 63.0518 185.293 62.1443 185.219 61.3839C185.146 60.6235 185.023 59.9857 184.9 59.5442C184.802 59.1027 184.729 58.8574 184.729 58.8574C184.729 58.8574 184.091 59.4951 183.232 60.5499C182.374 61.6046 181.147 63.0519 180.117 64.6708C179.602 65.4802 179.136 66.3142 178.719 67.1973C178.547 67.5161 178.425 67.835 178.277 68.1784C177.247 65.3085 176.119 62.6594 174.868 60.2065C176.143 59.6423 177.026 58.6366 177.591 57.3856C178.228 55.7912 178.326 53.7553 178.106 51.7439C177.787 49.7816 177.223 47.8193 176.658 46.4211C176.07 45.023 175.579 44.1154 175.579 44.1154C175.579 44.1154 175.138 44.8267 174.549 45.9306C174.255 46.4947 173.936 47.157 173.641 47.8683C173.347 48.6042 172.979 49.4137 172.685 50.2722C172.39 51.1307 172.121 51.9892 171.973 52.8723C171.9 53.3138 171.826 53.7553 171.802 54.1968C171.802 54.344 171.777 54.5157 171.777 54.6629C169.962 51.8175 167.975 49.1929 165.792 46.6174C166.405 46.2985 166.896 45.906 167.264 45.4154C167.73 44.8022 168 44.0909 168.122 43.2814C168.245 42.472 168.22 41.6134 168.073 40.6813C167.926 39.7738 167.705 38.8171 167.337 37.9341C166.651 36.168 165.743 34.4264 164.958 33.2C164.149 31.998 163.535 31.2131 163.535 31.2131C163.535 31.2131 163.241 31.9244 162.898 33.0283C162.554 34.1321 162.186 35.6283 161.941 37.3208C161.72 38.9888 161.72 40.7549 162.162 42.3984C162.186 42.521 162.211 42.6191 162.26 42.7418C159.709 40.0681 156.888 37.419 153.822 34.6472C156.863 32.9301 156.029 29.3489 154.337 26.0865C153.454 24.4921 152.375 23.0204 151.492 21.9166C150.707 20.7392 150.044 20.0524 150.044 20.0524C150.044 20.0524 149.186 22.8242 149.21 25.9639C149.235 27.5337 149.48 29.1772 150.143 30.7225C150.29 31.0414 150.437 31.3357 150.609 31.6301C147.812 29.1527 142.931 26.6016 142.931 26.6016C162.333 42.8399 177.125 62.4877 179.332 85.0054C180.117 93.1736 179.136 101.342 177.86 109.461C176.438 118.61 174.107 127.735 169.373 136.222C162.039 149.345 152.252 159.844 138.957 168.036C138.957 168.036 118.991 178.044 97.5767 178.265C97.0616 178.265 96.5465 178.265 96.0314 178.265C95.7861 178.265 95.5408 178.265 95.2955 178.265C74.1514 177.946 53.9149 168.036 53.9149 168.036C40.6202 159.844 30.8331 149.345 23.4989 136.222C18.7647 127.735 16.459 118.61 15.0118 109.461C13.7363 101.342 12.7551 93.1981 13.5401 85.0054C15.7477 62.4877 30.5632 42.8399 49.9412 26.6016C49.9412 26.6016 45.0599 29.1527 42.2636 31.6301C42.4353 31.3357 42.607 31.0414 42.7297 30.7225C43.3674 29.1772 43.6372 27.5337 43.6618 25.9639C43.7354 22.8242 42.8768 20.0524 42.8768 20.0524C42.8768 20.0524 42.2391 20.7392 41.356 21.8185C40.4975 22.8977 39.3937 24.3695 38.5107 25.9884C36.8182 29.2508 35.9842 32.8565 39.0258 34.5736C35.9596 37.3454 33.1388 39.9945 30.5878 42.6682C30.6123 42.5455 30.6614 42.4474 30.6859 42.3248C31.1519 40.6813 31.1519 38.9152 30.9066 37.2473C30.6614 35.5793 30.2934 34.0585 29.95 32.9547C29.6066 31.8509 29.3123 31.1395 29.3123 31.1395C29.3123 31.1395 28.699 31.9244 27.9141 33.1264C27.1292 34.3528 26.2216 36.0944 25.5348 37.8605C25.1668 38.7435 24.9461 39.6756 24.7989 40.6077C24.6517 41.5153 24.6272 42.3984 24.7498 43.2078C24.8725 44.0173 25.1423 44.7286 25.6084 45.3419C25.9763 45.8324 26.4669 46.2249 27.0801 46.5438C24.897 49.0948 22.8856 51.7439 21.095 54.5893C21.095 54.4176 21.0705 54.2704 21.0705 54.1233C21.046 53.6817 20.9724 53.2402 20.8988 52.7987C20.7271 51.9156 20.4818 51.0326 20.1874 50.1986C19.8931 49.3646 19.5252 48.5306 19.2308 47.8193C18.9119 47.0834 18.593 46.4211 18.3232 45.8815C17.7591 44.7532 17.3175 44.0663 17.3175 44.0663C17.3175 44.0663 16.827 44.9739 16.2383 46.3721C15.6741 47.7948 15.1099 49.7326 14.791 51.6949C14.5703 53.6817 14.6684 55.7422 15.3061 57.3366C15.8703 58.5876 16.7534 59.5933 18.0289 60.1574C16.7779 62.6349 15.6496 65.2595 14.6193 68.1294C14.4967 67.8105 14.3495 67.4916 14.1778 67.1482C13.7608 66.2897 13.2948 65.4312 12.7797 64.6217C11.7494 63.0028 10.5475 61.5556 9.66446 60.5008C8.80594 59.4461 8.16818 58.8083 8.16818 58.8083C8.16818 58.8083 8.11913 59.0536 7.99648 59.4951C7.89836 59.9367 7.75119 60.5744 7.6776 61.3348C7.60402 62.0952 7.53043 63.0028 7.5059 63.9594C7.48137 64.45 7.48137 64.9406 7.5059 65.4312C7.53043 65.9463 7.60402 66.4369 7.6776 66.952C7.97195 68.9879 8.53612 70.9993 9.68899 72.5201C10.4494 73.5503 11.3815 74.3107 12.5589 74.7522C11.9457 77.2297 11.4796 79.7316 11.1362 82.2581C11.0626 82.1355 10.989 82.0374 10.8909 81.9147C10.5966 81.4977 10.2532 81.1053 9.90975 80.7128C9.59087 80.3203 9.24746 79.9279 8.90406 79.5599C7.5059 78.0882 6.00963 76.7881 4.83223 75.8806C4.24353 75.4145 3.75295 75.0466 3.40954 74.8013C3.06614 74.556 2.8699 74.4088 2.8699 74.4088C2.8699 74.4088 2.84537 74.6786 2.8699 75.1202C2.89443 75.5617 2.94349 76.1994 3.01708 76.9598C3.09066 77.7202 3.21331 78.6278 3.38501 79.5599C3.53219 80.5166 3.85107 81.4977 4.16994 82.4789C4.51335 83.46 4.93035 84.4412 5.42093 85.3488C5.93604 86.2564 6.54927 87.0904 7.23608 87.7772C8.16818 88.7093 9.24747 89.3961 10.4984 89.764C10.4003 92.3886 10.4494 95.0378 10.5966 97.6624C10.3267 97.319 10.0569 96.9756 9.73805 96.6322C9.0267 95.8227 8.24177 95.0868 7.43231 94.3755C5.81339 92.9773 4.09636 91.8245 2.77179 90.9905C1.44722 90.1565 0.564169 89.6904 0.564169 89.6904C0.564169 89.6904 0.662285 90.7207 1.03022 92.1924C1.20193 92.9283 1.44722 93.8113 1.74156 94.7189C1.88874 95.185 2.06044 95.651 2.23215 96.1416C2.42838 96.6322 2.64914 97.1473 2.8699 97.6379C3.33596 98.6435 3.8756 99.6247 4.48882 100.532C4.78317 100.974 5.12658 101.415 5.46999 101.832C5.83792 102.249 6.23039 102.617 6.62285 102.961C7.94742 104.114 9.51728 104.825 11.2588 104.898C11.6758 108.014 12.2155 111.129 12.8778 114.195C12.8287 114.121 12.7551 114.023 12.7061 113.95C11.3324 112.233 9.56634 110.687 7.6776 109.338C6.7455 108.676 5.76433 108.063 4.85676 107.523C3.94918 106.983 3.13972 106.517 2.40385 106.125C0.981163 105.414 0 104.972 0 104.972C0 104.972 0.245291 106.051 0.784931 107.621C1.39816 109.216 2.25668 111.301 3.50766 113.287C4.16994 114.293 4.88129 115.274 5.69075 116.157C6.50021 117.04 7.30967 117.825 8.29083 118.463C10.106 119.64 12.0928 120.229 14.2023 119.861C14.3005 120.254 14.3986 120.646 14.4967 121.039C15.2326 123.786 16.1156 126.509 17.1704 129.182C16.9741 128.986 16.7779 128.79 16.5571 128.569C16.1156 128.177 15.6496 127.784 15.159 127.416C14.6684 127.048 14.2023 126.68 13.6872 126.337C12.657 125.65 11.5777 125.012 10.4739 124.448C9.39464 123.859 8.24177 123.369 7.26061 122.903C6.25492 122.437 5.32281 122.044 4.51335 121.725C2.89443 121.088 1.79062 120.72 1.79062 120.72C1.79062 120.72 2.25668 121.824 3.09066 123.418C3.50766 124.227 4.12089 125.135 4.78317 126.092C5.44546 127.048 6.20586 128.054 7.03985 129.011C7.94742 129.967 8.90406 130.899 9.90975 131.709C10.4003 132.126 10.9154 132.494 11.4551 132.837C11.7249 133.009 11.9702 133.156 12.24 133.328C12.5344 133.475 12.8042 133.622 13.074 133.745C15.2326 134.726 17.4156 135.02 19.4761 134.333C20.9724 137.326 22.6894 140.269 24.7008 143.09C24.3819 142.845 24.063 142.624 23.7196 142.403C23.18 142.06 22.5913 141.741 22.0026 141.447C21.4384 141.128 20.8497 140.858 20.261 140.564C19.0591 140.024 17.7836 139.534 16.5326 139.117C15.8948 138.896 15.2816 138.7 14.6439 138.528C14.0306 138.356 13.4419 138.16 12.8778 137.988C11.7494 137.645 10.6947 137.375 9.7871 137.154C7.97195 136.713 6.77003 136.492 6.77003 136.492C6.77003 136.492 7.5059 137.571 8.75688 139.117C9.34558 139.901 10.2041 140.735 11.1117 141.643C12.0438 142.526 13.0495 143.458 14.1288 144.341C15.2816 145.2 16.5081 145.985 17.7345 146.647C18.3478 146.99 18.9855 147.285 19.5987 147.555C20.212 147.824 20.8252 148.045 21.4875 148.217C23.9894 148.879 26.2952 148.83 28.233 147.726C30.1708 150.155 32.2312 152.608 34.4143 154.987C34.3162 154.938 34.2426 154.913 34.1445 154.864C33.8256 154.742 33.5067 154.619 33.1633 154.496C32.8444 154.374 32.5256 154.251 32.2067 154.153C31.5444 153.932 30.8821 153.736 30.1953 153.564C28.8217 153.221 27.4235 152.926 26.0254 152.706C24.6027 152.509 23.3272 152.289 22.0762 152.141C20.8497 151.994 19.6969 151.872 18.7157 151.774C16.7534 151.602 15.4779 151.553 15.4779 151.553C15.4779 151.553 16.5081 152.534 18.2006 153.908C18.6176 154.251 19.0836 154.619 19.5742 154.987C20.0648 155.355 20.6535 155.723 21.2422 156.115C22.4196 156.876 23.6951 157.636 25.0197 158.347C25.3631 158.519 25.6819 158.691 26.0254 158.862C26.3688 159.01 26.7367 159.181 27.1046 159.304C27.816 159.598 28.5519 159.868 29.2632 160.089C30.6859 160.579 32.1086 160.923 33.4331 161.095C35.7143 161.34 37.7503 161.046 39.3447 160.064C41.1353 161.781 42.9995 163.449 44.9373 165.019C44.3486 164.946 43.7599 164.848 43.1467 164.798C41.6749 164.651 40.1296 164.627 38.7314 164.578C35.886 164.48 33.1388 164.602 31.1029 164.749C30.0972 164.823 29.2632 164.897 28.6745 164.946C28.1103 164.995 27.7915 165.044 27.7915 165.044C27.7915 165.044 27.865 165.093 28.0122 165.191C28.1594 165.289 28.3801 165.412 28.6745 165.583C29.2632 165.927 30.0972 166.393 31.1274 166.957C32.1576 167.497 33.3596 168.11 34.6841 168.723C36.0578 169.287 37.5295 169.851 39.0503 170.342C39.8107 170.587 40.5711 170.808 41.3315 171.029C41.724 171.127 42.0919 171.225 42.4844 171.323C42.8768 171.397 43.2693 171.47 43.6618 171.544C45.2316 171.789 46.7279 171.912 48.1261 171.887C50.0393 171.838 51.6828 171.446 53.0074 170.661C53.7432 171.078 54.4546 171.495 55.215 171.887C55.3867 171.986 55.5093 172.01 55.6074 171.986C65.6644 177.529 78.1251 180.939 88.3783 182.165C80.161 183.686 70.5211 185.378 60.2925 186.924L49.2299 196.318C49.2299 196.318 74.1024 188.028 97.3069 182.754C120.511 188.028 145.384 196.318 145.384 196.318L134.321 186.924C123.823 185.329 113.938 183.588 105.598 182.042C118.279 180.595 128.949 176.867 137.486 171.986C137.584 171.986 137.657 171.961 137.78 171.887C138.516 171.495 139.252 171.078 139.987 170.661C141.288 171.446 142.956 171.838 144.869 171.887C146.267 171.936 147.763 171.789 149.333 171.544C149.726 171.47 150.118 171.421 150.51 171.323C150.903 171.225 151.271 171.127 151.663 171.029C152.424 170.833 153.209 170.587 153.969 170.342C155.49 169.851 156.962 169.287 158.335 168.723C159.66 168.11 160.862 167.497 161.892 166.933C162.922 166.393 163.756 165.902 164.345 165.559C164.639 165.387 164.86 165.265 165.007 165.166C165.154 165.068 165.228 165.019 165.228 165.019C165.228 165.019 164.909 164.995 164.345 164.921C163.756 164.872 162.922 164.798 161.916 164.725C159.881 164.578 157.158 164.455 154.312 164.553C152.914 164.627 151.369 164.627 149.897 164.798C149.309 164.848 148.695 164.921 148.107 165.019C150.044 163.449 151.909 161.781 153.699 160.064C155.294 161.021 157.33 161.315 159.611 161.095C160.935 160.923 162.358 160.579 163.781 160.113C164.492 159.868 165.228 159.598 165.939 159.304C166.307 159.157 166.651 159.01 167.019 158.862C167.362 158.691 167.705 158.519 168.024 158.347C169.349 157.636 170.624 156.876 171.802 156.115C172.39 155.723 172.955 155.379 173.47 154.987C173.96 154.594 174.426 154.251 174.843 153.908C176.511 152.534 177.566 151.553 177.566 151.553C177.566 151.553 176.291 151.602 174.328 151.774C173.347 151.872 172.194 151.97 170.968 152.141C169.717 152.289 168.441 152.509 167.019 152.73C165.62 152.951 164.222 153.245 162.849 153.589C162.162 153.76 161.499 153.957 160.837 154.177C160.518 154.276 160.199 154.398 159.881 154.521C159.562 154.643 159.218 154.742 158.899 154.864C158.801 154.889 158.728 154.938 158.63 154.987C160.813 152.583 162.873 150.155 164.811 147.726C166.749 148.83 169.079 148.879 171.556 148.217C172.194 148.045 172.807 147.824 173.445 147.555C174.058 147.285 174.696 146.99 175.309 146.647C176.536 145.985 177.787 145.175 178.915 144.341C179.994 143.458 181.025 142.551 181.957 141.643C182.864 140.76 183.723 139.901 184.312 139.117C185.563 137.571 186.298 136.492 186.298 136.492C186.298 136.492 185.096 136.713 183.281 137.154C182.374 137.375 181.319 137.669 180.191 137.988C179.626 138.16 179.038 138.332 178.425 138.528C177.811 138.724 177.174 138.92 176.536 139.141C175.26 139.558 174.009 140.049 172.807 140.588C172.194 140.858 171.605 141.152 171.066 141.471C170.477 141.766 169.913 142.085 169.373 142.428C169.03 142.649 168.687 142.869 168.368 143.115C170.379 140.294 172.096 137.35 173.592 134.358C175.677 135.069 177.86 134.775 179.994 133.769C180.264 133.647 180.559 133.499 180.828 133.352C181.098 133.205 181.344 133.033 181.613 132.862C182.128 132.518 182.644 132.15 183.159 131.733C184.164 130.924 185.121 129.992 186.029 129.035C186.863 128.078 187.598 127.073 188.285 126.116C188.923 125.159 189.561 124.252 189.978 123.442C190.812 121.848 191.278 120.744 191.278 120.744C191.278 120.744 190.174 121.112 188.555 121.75C187.746 122.069 186.789 122.461 185.808 122.927C184.827 123.393 183.674 123.909 182.57 124.473C181.466 125.037 180.362 125.675 179.357 126.361C178.842 126.705 178.375 127.073 177.885 127.441C177.394 127.809 176.928 128.201 176.487 128.594C176.266 128.79 176.07 128.986 175.874 129.182C176.928 126.509 177.811 123.786 178.547 121.039C178.523 120.646 178.621 120.254 178.719 119.861Z" fill="#FF5D45"/>
<path d="M60 121.475H137" stroke="#FF5940" stroke-width="1.83168"/>
<path d="M279.928 170.053C275.606 167.536 272.949 162.912 272.949 157.911V14.0517C272.949 6.29117 279.24 0 287 0H347.423V209.371L279.928 170.053Z" fill="white"/>
<path d="M413.614 170.071C417.878 167.54 420.492 162.948 420.492 157.989V14.0517C420.492 6.29117 414.201 0 406.44 0H347.423V209.371L413.614 170.071Z" fill="white"/>
<path d="M327.75 0V31.1924L347.422 39.3448L367.094 31.1924V0H327.75Z" fill="#FFC164"/>
<path d="M327.286 50.7355H331.166C332.849 50.7355 334.118 50.9793 334.975 51.4669C335.831 51.9545 336.259 52.7959 336.259 53.9911C336.259 54.4906 336.17 54.9426 335.991 55.3469C335.819 55.7453 335.566 56.0753 335.233 56.337C334.9 56.5927 334.49 56.7651 334.002 56.8543V56.9435C334.508 57.0327 334.957 57.1903 335.349 57.4162C335.748 57.6422 336.06 57.9663 336.286 58.3885C336.518 58.8107 336.634 59.3577 336.634 60.0297C336.634 60.8265 336.443 61.5044 336.063 62.0633C335.688 62.6223 335.15 63.0474 334.448 63.3388C333.753 63.6302 332.926 63.7759 331.969 63.7759H327.286V50.7355ZM329.427 56.114H331.478C332.447 56.114 333.119 55.9564 333.494 55.6412C333.869 55.3261 334.056 54.8652 334.056 54.2587C334.056 53.6403 333.833 53.1943 333.387 52.9208C332.947 52.6473 332.245 52.5105 331.282 52.5105H329.427V56.114ZM329.427 57.8444V61.983H331.683C332.682 61.983 333.384 61.7898 333.788 61.4033C334.193 61.0168 334.395 60.4935 334.395 59.8334C334.395 59.4291 334.303 59.0782 334.118 58.7809C333.94 58.4836 333.646 58.2547 333.235 58.0941C332.825 57.9276 332.272 57.8444 331.576 57.8444H329.427ZM343.047 53.7146C343.927 53.7146 344.682 53.896 345.312 54.2587C345.943 54.6214 346.427 55.1358 346.766 55.8018C347.105 56.4678 347.275 57.2646 347.275 58.1922V59.3161H340.683C340.707 60.2735 340.963 61.0108 341.45 61.5282C341.944 62.0455 342.634 62.3042 343.52 62.3042C344.15 62.3042 344.715 62.2447 345.214 62.1258C345.72 62.0009 346.24 61.8195 346.775 61.5817V63.2853C346.282 63.5172 345.779 63.6867 345.268 63.7937C344.756 63.9008 344.144 63.9543 343.43 63.9543C342.461 63.9543 341.608 63.767 340.87 63.3923C340.139 63.0118 339.565 62.4469 339.149 61.6976C338.739 60.9484 338.533 60.0178 338.533 58.9058C338.533 57.7998 338.721 56.8603 339.095 56.0872C339.47 55.3142 339.996 54.7255 340.674 54.3212C341.352 53.9168 342.143 53.7146 343.047 53.7146ZM343.047 55.2934C342.387 55.2934 341.852 55.5075 341.441 55.9356C341.037 56.3637 340.799 56.9911 340.728 57.8176H345.223C345.217 57.3241 345.134 56.887 344.973 56.5064C344.819 56.1259 344.581 55.8286 344.26 55.6145C343.945 55.4004 343.54 55.2934 343.047 55.2934ZM356.274 60.9573C356.274 61.6055 356.117 62.1525 355.802 62.5985C355.487 63.0445 355.026 63.3834 354.419 63.6153C353.819 63.8413 353.081 63.9543 352.207 63.9543C351.517 63.9543 350.923 63.9037 350.423 63.8026C349.93 63.7075 349.463 63.5588 349.023 63.3567V61.546C349.493 61.766 350.019 61.9563 350.602 62.1168C351.19 62.2774 351.746 62.3577 352.27 62.3577C352.959 62.3577 353.456 62.2506 353.759 62.0366C354.062 61.8166 354.214 61.5252 354.214 61.1625C354.214 60.9484 354.152 60.7581 354.027 60.5916C353.908 60.4192 353.682 60.2437 353.349 60.0653C353.022 59.881 352.54 59.661 351.904 59.4053C351.28 59.1556 350.753 58.9058 350.325 58.6561C349.897 58.4063 349.573 58.106 349.353 57.7552C349.133 57.3984 349.023 56.9435 349.023 56.3905C349.023 55.5164 349.368 54.8534 350.058 54.4014C350.753 53.9436 351.672 53.7146 352.814 53.7146C353.42 53.7146 353.991 53.7771 354.526 53.9019C355.067 54.0209 355.597 54.1963 356.114 54.4282L355.454 56.0069C355.008 55.8107 354.559 55.6502 354.107 55.5253C353.661 55.3945 353.206 55.3291 352.742 55.3291C352.201 55.3291 351.788 55.4123 351.503 55.5788C351.223 55.7453 351.083 55.9832 351.083 56.2924C351.083 56.5243 351.152 56.7205 351.288 56.8811C351.425 57.0416 351.66 57.2022 351.993 57.3627C352.332 57.5233 352.802 57.7225 353.402 57.9603C353.991 58.1863 354.499 58.4241 354.928 58.6739C355.362 58.9177 355.695 59.218 355.927 59.5748C356.159 59.9316 356.274 60.3924 356.274 60.9573ZM362.215 62.2596C362.488 62.2596 362.759 62.2358 363.027 62.1882C363.294 62.1347 363.538 62.0722 363.758 62.0009V63.5886C363.526 63.6897 363.226 63.7759 362.857 63.8472C362.488 63.9186 362.105 63.9543 361.706 63.9543C361.148 63.9543 360.645 63.8621 360.199 63.6778C359.753 63.4875 359.399 63.1634 359.138 62.7055C358.876 62.2477 358.745 61.6144 358.745 60.8057V55.4985H357.398V54.562L358.843 53.8217L359.53 51.7077H360.85V53.9019H363.678V55.4985H360.85V60.7789C360.85 61.2784 360.975 61.6501 361.225 61.8939C361.475 62.1377 361.805 62.2596 362.215 62.2596ZM304.791 80.7759L301.036 69.8851H300.955C300.973 70.1289 300.994 70.4619 301.018 70.8841C301.042 71.3063 301.062 71.7582 301.08 72.2399C301.098 72.7215 301.107 73.1824 301.107 73.6224V80.7759H299.163V67.7355H302.168L305.781 78.1446H305.834L309.572 67.7355H312.569V80.7759H310.526V73.5154C310.526 73.117 310.532 72.6858 310.544 72.222C310.562 71.7582 310.58 71.3182 310.597 70.9019C310.621 70.4857 310.639 70.1527 310.651 69.9029H310.58L306.682 80.7759H304.791ZM324.53 75.8166C324.53 76.6372 324.423 77.3656 324.209 78.0019C323.995 78.6382 323.682 79.1763 323.272 79.6163C322.862 80.0504 322.368 80.3834 321.791 80.6153C321.215 80.8413 320.564 80.9543 319.838 80.9543C319.16 80.9543 318.539 80.8413 317.974 80.6153C317.409 80.3834 316.918 80.0504 316.502 79.6163C316.092 79.1763 315.774 78.6382 315.548 78.0019C315.322 77.3656 315.209 76.6372 315.209 75.8166C315.209 74.7284 315.396 73.8067 315.771 73.0515C316.151 72.2904 316.692 71.7106 317.394 71.3122C318.096 70.9138 318.931 70.7146 319.901 70.7146C320.81 70.7146 321.613 70.9138 322.309 71.3122C323.005 71.7106 323.549 72.2904 323.941 73.0515C324.334 73.8127 324.53 74.7344 324.53 75.8166ZM317.367 75.8166C317.367 76.5361 317.454 77.1516 317.626 77.663C317.804 78.1743 318.078 78.5668 318.447 78.8403C318.815 79.1079 319.291 79.2417 319.874 79.2417C320.457 79.2417 320.932 79.1079 321.301 78.8403C321.67 78.5668 321.94 78.1743 322.113 77.663C322.285 77.1516 322.371 76.5361 322.371 75.8166C322.371 75.0971 322.285 74.4876 322.113 73.9881C321.94 73.4827 321.67 73.0991 321.301 72.8375C320.932 72.5699 320.454 72.4361 319.865 72.4361C318.997 72.4361 318.363 72.7275 317.965 73.3102C317.567 73.893 317.367 74.7284 317.367 75.8166ZM329.034 66.8971V70.2419C329.034 70.6284 329.022 71.009 328.998 71.3836C328.981 71.7523 328.963 72.0407 328.945 72.2488H329.034C329.302 71.8206 329.673 71.4609 330.149 71.1695C330.631 70.8722 331.246 70.7235 331.995 70.7235C333.167 70.7235 334.109 71.1547 334.823 72.0169C335.537 72.8732 335.893 74.1427 335.893 75.8255C335.893 76.9434 335.73 77.883 335.403 78.6441C335.076 79.4052 334.615 79.982 334.02 80.3745C333.432 80.761 332.739 80.9543 331.942 80.9543C331.193 80.9543 330.586 80.8175 330.122 80.544C329.664 80.2645 329.305 79.9404 329.043 79.5717H328.891L328.508 80.7759H326.938V66.8971H329.034ZM331.442 72.4272C330.848 72.4272 330.375 72.5461 330.024 72.784C329.679 73.0218 329.43 73.3786 329.275 73.8543C329.12 74.3241 329.04 74.9217 329.034 75.6471V75.8344C329.034 76.9345 329.207 77.7759 329.551 78.3587C329.902 78.9414 330.539 79.2328 331.46 79.2328C332.192 79.2328 332.754 78.9385 333.146 78.3498C333.539 77.7551 333.735 76.9048 333.735 75.7988C333.735 74.6809 333.539 73.8394 333.146 73.2745C332.76 72.7096 332.192 72.4272 331.442 72.4272ZM340.416 70.9019V80.7759H338.319V70.9019H340.416ZM339.381 67.12C339.702 67.12 339.978 67.2063 340.21 67.3787C340.448 67.5512 340.567 67.8485 340.567 68.2707C340.567 68.6869 340.448 68.9842 340.21 69.1626C339.978 69.3351 339.702 69.4213 339.381 69.4213C339.048 69.4213 338.765 69.3351 338.533 69.1626C338.308 68.9842 338.195 68.6869 338.195 68.2707C338.195 67.8485 338.308 67.5512 338.533 67.3787C338.765 67.2063 339.048 67.12 339.381 67.12ZM345.526 80.7759H343.421V66.8971H345.526V80.7759ZM352.457 70.7146C353.337 70.7146 354.092 70.896 354.722 71.2587C355.353 71.6214 355.837 72.1358 356.176 72.8018C356.515 73.4678 356.685 74.2646 356.685 75.1922V76.3161H350.093C350.117 77.2735 350.373 78.0108 350.86 78.5282C351.354 79.0455 352.044 79.3042 352.93 79.3042C353.56 79.3042 354.125 79.2447 354.624 79.1258C355.13 79.0009 355.65 78.8195 356.185 78.5817V80.2853C355.692 80.5172 355.189 80.6867 354.678 80.7937C354.166 80.9008 353.554 80.9543 352.84 80.9543C351.871 80.9543 351.018 80.767 350.281 80.3923C349.549 80.0118 348.975 79.4469 348.559 78.6976C348.149 77.9484 347.944 77.0178 347.944 75.9058C347.944 74.7998 348.131 73.8603 348.506 73.0872C348.88 72.3142 349.406 71.7255 350.084 71.3212C350.762 70.9168 351.553 70.7146 352.457 70.7146ZM352.457 72.2934C351.797 72.2934 351.262 72.5075 350.851 72.9356C350.447 73.3637 350.209 73.9911 350.138 74.8176H354.633C354.627 74.3241 354.544 73.887 354.384 73.5064C354.229 73.1259 353.991 72.8286 353.67 72.6145C353.355 72.4004 352.95 72.2934 352.457 72.2934ZM372.089 80.7759L370.813 77.1545H365.827L364.552 80.7759H362.295L367.147 67.682H369.52L374.363 80.7759H372.089ZM370.26 75.3171L369.021 71.7493C368.973 71.5947 368.905 71.3776 368.815 71.0982C368.726 70.8127 368.637 70.5243 368.548 70.233C368.459 69.9357 368.384 69.6859 368.325 69.4837C368.265 69.7275 368.191 70.0011 368.102 70.3043C368.019 70.6016 367.935 70.8811 367.852 71.1428C367.775 71.4044 367.715 71.6066 367.674 71.7493L366.425 75.3171H370.26ZM380.937 70.7146C382.108 70.7146 383.048 71.1428 383.756 71.999C384.469 72.8553 384.826 74.1278 384.826 75.8166C384.826 76.9345 384.659 77.877 384.326 78.6441C383.999 79.4052 383.539 79.982 382.944 80.3745C382.355 80.761 381.668 80.9543 380.884 80.9543C380.384 80.9543 379.95 80.8889 379.581 80.758C379.213 80.6272 378.897 80.4577 378.636 80.2496C378.374 80.0356 378.154 79.8036 377.976 79.5539H377.851C377.881 79.7918 377.907 80.0564 377.931 80.3477C377.961 80.6332 377.976 80.8948 377.976 81.1327V85.1554H375.871V70.9019H377.583L377.878 72.2666H377.976C378.16 71.9871 378.383 71.7285 378.645 71.4906C378.912 71.2528 379.233 71.0655 379.608 70.9287C379.989 70.786 380.432 70.7146 380.937 70.7146ZM380.375 72.4272C379.798 72.4272 379.334 72.5431 378.984 72.775C378.639 73.001 378.386 73.3429 378.225 73.8008C378.071 74.2587 377.988 74.8325 377.976 75.5223V75.8166C377.976 76.548 378.05 77.1694 378.199 77.6808C378.353 78.1862 378.606 78.5727 378.957 78.8403C379.314 79.102 379.795 79.2328 380.402 79.2328C380.913 79.2328 381.335 79.0931 381.668 78.8136C382.007 78.5341 382.26 78.1357 382.427 77.6184C382.593 77.101 382.676 76.4915 382.676 75.7898C382.676 74.7255 382.486 73.8989 382.105 73.3102C381.731 72.7215 381.154 72.4272 380.375 72.4272ZM392.318 70.7146C393.49 70.7146 394.429 71.1428 395.137 71.999C395.851 72.8553 396.207 74.1278 396.207 75.8166C396.207 76.9345 396.041 77.877 395.708 78.6441C395.381 79.4052 394.92 79.982 394.325 80.3745C393.737 80.761 393.05 80.9543 392.265 80.9543C391.765 80.9543 391.331 80.8889 390.963 80.758C390.594 80.6272 390.279 80.4577 390.017 80.2496C389.755 80.0356 389.535 79.8036 389.357 79.5539H389.232C389.262 79.7918 389.289 80.0564 389.312 80.3477C389.342 80.6332 389.357 80.8948 389.357 81.1327V85.1554H387.252V70.9019H388.965L389.259 72.2666H389.357C389.541 71.9871 389.764 71.7285 390.026 71.4906C390.294 71.2528 390.615 71.0655 390.989 70.9287C391.37 70.786 391.813 70.7146 392.318 70.7146ZM391.756 72.4272C391.18 72.4272 390.716 72.5431 390.365 72.775C390.02 73.001 389.767 73.3429 389.607 73.8008C389.452 74.2587 389.369 74.8325 389.357 75.5223V75.8166C389.357 76.548 389.431 77.1694 389.58 77.6808C389.735 78.1862 389.987 78.5727 390.338 78.8403C390.695 79.102 391.177 79.2328 391.783 79.2328C392.295 79.2328 392.717 79.0931 393.05 78.8136C393.389 78.5341 393.641 78.1357 393.808 77.6184C393.974 77.101 394.058 76.4915 394.058 75.7898C394.058 74.7255 393.867 73.8989 393.487 73.3102C393.112 72.7215 392.535 72.4272 391.756 72.4272Z" fill="#303030"/>
<path d="M331.937 171.354H319.315V168.699L323.847 164.117C325.189 162.742 326.066 161.791 326.478 161.264C326.889 160.729 327.186 160.235 327.367 159.782C327.548 159.329 327.639 158.86 327.639 158.374C327.639 157.649 327.437 157.11 327.034 156.756C326.638 156.402 326.107 156.225 325.44 156.225C324.741 156.225 324.061 156.386 323.403 156.707C322.744 157.028 322.056 157.485 321.34 158.078L319.265 155.62C320.154 154.862 320.891 154.327 321.476 154.014C322.061 153.702 322.699 153.463 323.39 153.298C324.082 153.125 324.856 153.039 325.712 153.039C326.84 153.039 327.836 153.245 328.701 153.656C329.565 154.068 330.236 154.644 330.714 155.385C331.191 156.126 331.43 156.974 331.43 157.929C331.43 158.761 331.282 159.543 330.986 160.276C330.697 161 330.245 161.746 329.627 162.511C329.018 163.277 327.939 164.368 326.391 165.784L324.069 167.97V168.143H331.937V171.354ZM346.287 162.326C346.287 165.479 345.769 167.814 344.731 169.329C343.702 170.844 342.113 171.601 339.964 171.601C337.881 171.601 336.308 170.819 335.246 169.254C334.192 167.69 333.666 165.381 333.666 162.326C333.666 159.14 334.18 156.793 335.209 155.286C336.238 153.772 337.823 153.014 339.964 153.014C342.047 153.014 343.62 153.804 344.682 155.385C345.752 156.966 346.287 159.28 346.287 162.326ZM337.457 162.326C337.457 164.541 337.646 166.13 338.025 167.093C338.412 168.048 339.058 168.526 339.964 168.526C340.853 168.526 341.496 168.04 341.891 167.069C342.286 166.097 342.484 164.516 342.484 162.326C342.484 160.111 342.282 158.522 341.878 157.559C341.483 156.587 340.845 156.102 339.964 156.102C339.067 156.102 338.424 156.587 338.037 157.559C337.651 158.522 337.457 160.111 337.457 162.326ZM360.836 171.354H348.214V168.699L352.747 164.117C354.089 162.742 354.965 161.791 355.377 161.264C355.789 160.729 356.085 160.235 356.266 159.782C356.447 159.329 356.538 158.86 356.538 158.374C356.538 157.649 356.336 157.11 355.933 156.756C355.538 156.402 355.007 156.225 354.34 156.225C353.64 156.225 352.961 156.386 352.302 156.707C351.643 157.028 350.956 157.485 350.239 158.078L348.165 155.62C349.054 154.862 349.791 154.327 350.375 154.014C350.96 153.702 351.598 153.463 352.29 153.298C352.981 153.125 353.755 153.039 354.611 153.039C355.739 153.039 356.736 153.245 357.6 153.656C358.465 154.068 359.136 154.644 359.613 155.385C360.091 156.126 360.33 156.974 360.33 157.929C360.33 158.761 360.181 159.543 359.885 160.276C359.597 161 359.144 161.746 358.526 162.511C357.917 163.277 356.839 164.368 355.291 165.784L352.969 167.97V168.143H360.836V171.354ZM378.521 171.354H374.149L369.95 164.524L365.751 171.354H361.651L367.641 162.042L362.034 153.298H366.258L370.148 159.794L373.964 153.298H378.089L372.42 162.252L378.521 171.354Z" fill="#303030"/>
<path d="M339.913 16.5763H345.882V24.3775C344.915 24.6931 344.002 24.9127 343.144 25.0362C342.294 25.1665 341.422 25.2317 340.53 25.2317C338.259 25.2317 336.523 24.5662 335.323 23.2351C334.129 21.8972 333.532 19.9795 333.532 17.482C333.532 15.0531 334.225 13.1594 335.611 11.8009C337.004 10.4424 338.932 9.76315 341.395 9.76315C342.939 9.76315 344.427 10.0719 345.861 10.6894L344.801 13.2418C343.704 12.6929 342.561 12.4184 341.374 12.4184C339.995 12.4184 338.89 12.8816 338.06 13.8078C337.23 14.7341 336.815 15.9794 336.815 17.5437C336.815 19.1767 337.148 20.4254 337.813 21.29C338.486 22.1476 339.46 22.5764 340.736 22.5764C341.402 22.5764 342.077 22.5078 342.764 22.3706V19.2316H339.913V16.5763ZM358.942 25.0259H348.424V22.8131L352.201 18.9949C353.32 17.8491 354.05 17.0566 354.393 16.6175C354.736 16.1715 354.983 15.7598 355.134 15.3825C355.285 15.0051 355.361 14.614 355.361 14.2092C355.361 13.6054 355.193 13.156 354.856 12.861C354.527 12.566 354.085 12.4184 353.529 12.4184C352.946 12.4184 352.38 12.5522 351.831 12.8198C351.282 13.0874 350.709 13.4682 350.112 13.9622L348.383 11.9141C349.124 11.2829 349.738 10.8369 350.225 10.5762C350.712 10.3155 351.244 10.1165 351.82 9.97928C352.397 9.8352 353.042 9.76315 353.755 9.76315C354.695 9.76315 355.525 9.93468 356.246 10.2777C356.966 10.6208 357.525 11.1011 357.923 11.7186C358.321 12.3361 358.52 13.0428 358.52 13.8387C358.52 14.5317 358.397 15.1835 358.15 15.7941C357.91 16.3979 357.532 17.0189 357.018 17.657C356.51 18.295 355.611 19.2042 354.321 20.3843L352.386 22.2059V22.35H358.942V25.0259Z" fill="#303030"/>
<rect x="265.921" y="92.7412" width="163" height="46.3707" rx="7.02586" fill="#7D5FFF"/>
<path d="M311.846 120.794C311.846 121.924 311.568 122.898 311.012 123.714C310.464 124.531 309.674 125.157 308.639 125.592C307.614 126.026 306.388 126.244 304.963 126.244C304.268 126.244 303.603 126.204 302.969 126.126C302.334 126.048 301.735 125.935 301.17 125.787C300.613 125.631 300.105 125.444 299.644 125.227V122.28C300.418 122.619 301.283 122.928 302.239 123.206C303.195 123.475 304.168 123.61 305.159 123.61C305.967 123.61 306.636 123.506 307.166 123.297C307.705 123.08 308.105 122.776 308.366 122.385C308.626 121.985 308.757 121.52 308.757 120.99C308.757 120.425 308.605 119.947 308.3 119.556C307.996 119.165 307.536 118.808 306.919 118.487C306.31 118.157 305.545 117.805 304.624 117.431C303.999 117.179 303.399 116.892 302.825 116.571C302.26 116.249 301.756 115.871 301.313 115.436C300.87 115.002 300.518 114.489 300.257 113.898C300.005 113.299 299.879 112.595 299.879 111.786C299.879 110.709 300.135 109.787 300.648 109.023C301.17 108.258 301.9 107.671 302.838 107.263C303.786 106.854 304.889 106.65 306.149 106.65C307.149 106.65 308.088 106.754 308.965 106.963C309.852 107.171 310.721 107.467 311.573 107.849L310.582 110.365C309.8 110.044 309.039 109.787 308.3 109.596C307.57 109.405 306.823 109.309 306.058 109.309C305.398 109.309 304.837 109.409 304.377 109.609C303.916 109.809 303.564 110.092 303.321 110.457C303.086 110.813 302.969 111.239 302.969 111.734C302.969 112.29 303.103 112.76 303.373 113.142C303.651 113.516 304.077 113.859 304.65 114.172C305.233 114.485 305.98 114.832 306.893 115.215C307.944 115.649 308.835 116.106 309.565 116.584C310.304 117.062 310.869 117.635 311.26 118.304C311.651 118.965 311.846 119.795 311.846 120.794ZM321.063 106.924C323.522 106.924 325.317 107.428 326.447 108.436C327.577 109.444 328.142 110.856 328.142 112.673C328.142 113.498 328.011 114.285 327.751 115.032C327.499 115.771 327.081 116.427 326.499 117.001C325.917 117.566 325.148 118.013 324.192 118.344C323.244 118.674 322.075 118.839 320.685 118.839H318.651V125.983H315.523V106.924H321.063ZM320.854 109.518H318.651V116.232H320.359C321.341 116.232 322.175 116.119 322.862 115.893C323.549 115.658 324.07 115.289 324.426 114.785C324.783 114.281 324.961 113.616 324.961 112.79C324.961 111.686 324.626 110.865 323.957 110.326C323.297 109.787 322.262 109.518 320.854 109.518ZM337.306 106.924C338.949 106.924 340.305 107.124 341.373 107.523C342.451 107.923 343.251 108.532 343.772 109.349C344.302 110.165 344.567 111.204 344.567 112.464C344.567 113.403 344.394 114.202 344.046 114.863C343.698 115.523 343.242 116.071 342.677 116.505C342.112 116.94 341.508 117.288 340.865 117.548L346.275 125.983H342.742L338.14 118.344H335.077V125.983H331.948V106.924H337.306ZM337.098 109.531H335.077V115.762H337.241C338.692 115.762 339.744 115.493 340.396 114.954C341.056 114.415 341.387 113.62 341.387 112.568C341.387 111.465 341.035 110.683 340.331 110.222C339.635 109.761 338.558 109.531 337.098 109.531ZM349 125.983V106.924H352.128V125.983H349ZM373.065 125.983H369.219L359.885 110.769H359.768C359.802 111.282 359.833 111.825 359.859 112.399C359.894 112.973 359.92 113.564 359.937 114.172C359.963 114.78 359.985 115.397 360.002 116.023V125.983H357.16V106.924H360.98L370.301 122.033H370.392C370.375 121.59 370.353 121.081 370.327 120.508C370.301 119.934 370.275 119.343 370.249 118.735C370.231 118.118 370.218 117.522 370.21 116.949V106.924H373.065V125.983ZM385.762 115.632H392.88V125.201C391.88 125.531 390.846 125.787 389.777 125.97C388.708 126.152 387.509 126.244 386.179 126.244C384.241 126.244 382.599 125.861 381.251 125.096C379.913 124.323 378.896 123.206 378.201 121.746C377.506 120.277 377.158 118.509 377.158 116.44C377.158 114.45 377.545 112.725 378.318 111.265C379.092 109.796 380.217 108.662 381.695 107.862C383.172 107.054 384.962 106.65 387.066 106.65C388.1 106.65 389.099 106.754 390.064 106.963C391.037 107.163 391.928 107.441 392.736 107.797L391.641 110.378C390.998 110.074 390.277 109.818 389.477 109.609C388.678 109.401 387.848 109.296 386.987 109.296C385.623 109.296 384.445 109.592 383.455 110.183C382.472 110.774 381.716 111.608 381.186 112.686C380.656 113.755 380.391 115.019 380.391 116.479C380.391 117.896 380.604 119.139 381.03 120.208C381.456 121.277 382.121 122.111 383.024 122.711C383.937 123.302 385.115 123.597 386.557 123.597C387.279 123.597 387.891 123.558 388.395 123.48C388.899 123.402 389.364 123.315 389.79 123.219V118.304H385.762V115.632Z" fill="white"/>
</svg>
