<svg width="24" height="25" viewBox="0 0 24 25" fill="none" xmlns="http://www.w3.org/2000/svg">
<path d="M12 0.396484C9.62663 0.396484 7.30655 1.10027 5.33316 2.41885C3.35977 3.73743 1.8217 5.61157 0.913451 7.80428C0.00519941 9.99699 -0.232441 12.4098 0.230582 14.7376C0.693605 17.0653 1.83649 19.2035 3.51472 20.8818C5.19295 22.56 7.33115 23.7029 9.65892 24.1659C11.9867 24.6289 14.3995 24.3913 16.5922 23.483C18.7849 22.5748 20.6591 21.0367 21.9776 19.0633C23.2962 17.0899 24 14.7699 24 12.3965C23.9939 9.21576 22.7277 6.16705 20.4785 3.91794C18.2294 1.66882 15.1807 0.402584 12 0.396484ZM17.7115 10.2965L10.95 16.758C10.7752 16.9225 10.5438 17.0133 10.3039 17.0119C10.1865 17.0135 10.0701 16.992 9.96115 16.9484C9.85223 16.9048 9.75302 16.8401 9.66923 16.758L6.28847 13.5273C6.1947 13.4454 6.11844 13.3455 6.06427 13.2335C6.0101 13.1214 5.97915 12.9996 5.97327 12.8753C5.96739 12.751 5.9867 12.6268 6.03005 12.5102C6.07339 12.3935 6.13988 12.2868 6.22551 12.1965C6.31113 12.1062 6.41413 12.0342 6.52832 11.9847C6.6425 11.9352 6.76551 11.9093 6.88995 11.9086C7.01439 11.9079 7.13769 11.9324 7.25244 11.9805C7.36719 12.0286 7.47103 12.0995 7.5577 12.1888L10.3039 14.808L16.4423 8.95802C16.6218 8.80143 16.8549 8.72028 17.0928 8.73154C17.3307 8.7428 17.5551 8.84559 17.719 9.01842C17.8829 9.19126 17.9736 9.42076 17.9722 9.65895C17.9708 9.89713 17.8774 10.1256 17.7115 10.2965Z" fill="#FFB545"/>
</svg>
