<svg width="80" height="56" viewBox="0 0 80 56" fill="none" xmlns="http://www.w3.org/2000/svg">
<path d="M27.7643 56.002C26.8377 55.9893 25.9493 55.6291 25.2735 54.9921L0.803 30.4035C0.245551 29.721 -0.0393273 28.8545 0.00377605 27.9727C0.0468794 27.0908 0.414882 26.2566 1.03621 25.6323C1.65753 25.0079 2.48775 24.6382 3.36537 24.5948C4.243 24.5515 5.10528 24.8378 5.7845 25.3979L27.7643 47.5277L74.2145 0.80932C74.8937 0.249181 75.756 -0.0370733 76.6336 0.00623801C77.5113 0.0495494 78.3415 0.41933 78.9628 1.04365C79.5841 1.66797 79.9521 2.5022 79.9953 3.38406C80.0384 4.26592 79.7535 5.13236 79.196 5.81486L30.255 54.9921C29.5792 55.6291 28.6908 55.9893 27.7643 56.002Z" fill="#EEAA55"/>
</svg>
