<svg width="234" height="90" viewBox="0 0 234 90" fill="none" xmlns="http://www.w3.org/2000/svg">
<path d="M104.254 68C119.994 68 132.754 55.2401 132.754 39.5C132.754 23.7599 119.994 11 104.254 11C88.5138 11 75.7539 23.7599 75.7539 39.5C75.7539 55.2401 88.5138 68 104.254 68Z" stroke="#DEDEDE" stroke-width="5" stroke-linecap="round" stroke-linejoin="round"/>
<path d="M63.5 86.9995C68.4935 81.0481 74.7298 76.2624 81.7707 72.979C88.8116 69.6956 96.4862 67.9941 104.255 67.9941C112.024 67.9941 119.698 69.6956 126.739 72.979C133.78 76.2624 140.017 81.0481 145.01 86.9995" stroke="#DEDEDE" stroke-width="5" stroke-linecap="round" stroke-linejoin="round"/>
<circle cx="168" cy="22.5" r="22.5" fill="#E5DFF4"/>
<path d="M157.5 22.4004H180.3" stroke="#7544FF" stroke-width="3" stroke-linecap="round" stroke-linejoin="round"/>
<path d="M168.9 11V33.8" stroke="#7544FF" stroke-width="3" stroke-linecap="round" stroke-linejoin="round"/>
</svg>
