<svg width="23" height="23" viewBox="0 0 23 23" fill="none" xmlns="http://www.w3.org/2000/svg">
<path d="M20.7394 0.743164H2.58746C1.5956 0.743164 0.729004 1.45683 0.729004 2.43704V20.6293C0.729004 21.6148 1.5956 22.4931 2.58746 22.4931H20.7341C21.7313 22.4931 22.4789 21.609 22.4789 20.6293V2.43704C22.4848 1.45683 21.7313 0.743164 20.7394 0.743164ZM7.471 18.8728H4.35513V9.18486H7.471V18.8728ZM6.02084 7.71188H5.99851C5.00131 7.71188 4.35561 6.96957 4.35561 6.04034C4.35561 5.09412 5.0183 4.36929 6.03783 4.36929C7.05736 4.36929 7.68121 5.08878 7.70355 6.04034C7.70306 6.96957 7.05736 7.71188 6.02084 7.71188ZM18.8586 18.8728H15.7428V13.5756C15.7428 12.3066 15.2893 11.4395 14.162 11.4395C13.3008 11.4395 12.791 12.0221 12.5643 12.5896C12.4793 12.7935 12.4565 13.0712 12.4565 13.3547V18.8728H9.34062V9.18486H12.4565V10.5331C12.9099 9.88736 13.6183 8.95813 15.2665 8.95813C17.3119 8.95813 18.8591 10.3063 18.8591 13.213L18.8586 18.8728Z" fill="#231656"/>
</svg>
