<svg width="23" height="23" viewBox="0 0 23 23" fill="none" xmlns="http://www.w3.org/2000/svg">
<path d="M15.766 2.69341C16.9948 2.69694 18.1723 3.16822 19.0411 4.00434C19.91 4.84046 20.3998 5.97346 20.4035 7.15591V16.08C20.3998 17.2624 19.91 18.3954 19.0411 19.2315C18.1723 20.0676 16.9948 20.5389 15.766 20.5425H6.49213C5.26333 20.5389 4.08591 20.0676 3.21701 19.2315C2.34812 18.3954 1.85835 17.2624 1.85468 16.08V7.15591C1.85835 5.97346 2.34812 4.84046 3.21701 4.00434C4.08591 3.16822 5.26333 2.69694 6.49213 2.69341H15.766ZM15.766 0.908691H6.49213C2.92138 0.908691 0 3.71987 0 7.15591V16.08C0 19.516 2.92138 22.3272 6.49213 22.3272H15.766C19.3368 22.3272 22.2582 19.516 22.2582 16.08V7.15591C22.2582 3.71987 19.3368 0.908691 15.766 0.908691Z" fill="#231656"/>
<path d="M17.1571 7.15631C16.8819 7.15631 16.613 7.0778 16.3842 6.93071C16.1554 6.78362 15.9771 6.57455 15.8718 6.32994C15.7665 6.08533 15.739 5.81617 15.7927 5.5565C15.8464 5.29683 15.9788 5.0583 16.1734 4.87109C16.368 4.68387 16.6158 4.55638 16.8857 4.50473C17.1555 4.45307 17.4352 4.47958 17.6894 4.5809C17.9436 4.68222 18.1609 4.8538 18.3138 5.07394C18.4666 5.29408 18.5482 5.5529 18.5482 5.81766C18.5486 5.99356 18.5129 6.1678 18.4431 6.33039C18.3733 6.49297 18.2709 6.64069 18.1416 6.76507C18.0124 6.88946 17.8589 6.98804 17.6899 7.05518C17.5209 7.12232 17.3399 7.15669 17.1571 7.15631ZM11.129 8.04843C11.8627 8.04843 12.58 8.2578 13.1901 8.65007C13.8002 9.04234 14.2757 9.59988 14.5565 10.2522C14.8372 10.9045 14.9107 11.6223 14.7676 12.3148C14.6244 13.0073 14.2711 13.6434 13.7523 14.1426C13.2334 14.6419 12.5724 14.9819 11.8528 15.1196C11.1331 15.2574 10.3872 15.1867 9.70929 14.9165C9.03141 14.6463 8.452 14.1887 8.04436 13.6017C7.63672 13.0146 7.41914 12.3244 7.41914 11.6183C7.42019 10.6718 7.81138 9.76442 8.50689 9.09515C9.2024 8.42588 10.1454 8.04944 11.129 8.04843ZM11.129 6.26372C10.0284 6.26372 8.95259 6.57776 8.0375 7.16613C7.12242 7.75451 6.4092 8.59078 5.98803 9.56921C5.56686 10.5476 5.45667 11.6243 5.67138 12.663C5.88609 13.7017 6.41606 14.6558 7.19427 15.4046C7.97249 16.1535 8.96399 16.6635 10.0434 16.8701C11.1228 17.0767 12.2417 16.9706 13.2585 16.5654C14.2752 16.1601 15.1443 15.4738 15.7557 14.5932C16.3672 13.7126 16.6935 12.6774 16.6935 11.6183C16.6935 10.1982 16.1073 8.83624 15.0637 7.83205C14.0202 6.82786 12.6048 6.26372 11.129 6.26372Z" fill="#231656"/>
</svg>
