<svg width="187" height="58" viewBox="0 0 187 58" fill="none" xmlns="http://www.w3.org/2000/svg">
<path fill-rule="evenodd" clip-rule="evenodd" d="M3.06013 48.7979H9.81509C11.5152 48.7979 12.8979 47.4151 12.8752 45.7377V34.6986H20.5595C29.6493 34.6986 37.0163 27.3316 37.0163 18.2419C37.0163 9.15214 29.6493 1.78516 20.5369 1.78516H12.8752H8.65901H3.06013C1.38273 1.78516 0 3.16788 0 4.84529V45.7377C0 47.4151 1.36006 48.7979 3.06013 48.7979Z" fill="url(#paint0_linear_3_1335)" fill-opacity="0.8"/>
<path fill-rule="evenodd" clip-rule="evenodd" d="M10.1636 57.7432H16.9186C18.6187 57.7432 20.0014 56.3605 19.9787 54.6831V43.644H27.6631C36.7528 43.644 44.1198 36.277 44.1198 27.1873C44.1198 18.0975 36.7528 10.7305 27.6404 10.7305H19.9787V10.7305H10.1636C8.48624 10.7305 7.10352 12.1132 7.10352 13.7906V54.6831C7.10352 56.3605 8.46358 57.7432 10.1636 57.7432Z" fill="url(#paint1_linear_3_1335)" fill-opacity="0.74"/>
<path d="M7.10205 49.3037L8.78565 49.2979C10.9894 49.2903 12.7718 47.5017 12.7718 45.2979V34.8116H19.9719C25.6658 34.7221 37.0185 31.2157 36.8777 17.9058C36.7369 4.59597 25.5485 1.0895 19.9719 1" stroke="white" stroke-width="2"/>
<path d="M54.9616 19.6006V40.6006H59.2516V19.6006H54.9616ZM57.5716 23.2306H61.7416C62.8816 23.2306 63.7816 23.4906 64.4416 24.0106C65.1016 24.5106 65.4316 25.2706 65.4316 26.2906C65.4316 27.2906 65.1016 28.0506 64.4416 28.5706C63.7816 29.0906 62.8816 29.3506 61.7416 29.3506H57.5716V32.9806H61.7416C63.4016 32.9806 64.8116 32.7106 65.9716 32.1706C67.1516 31.6306 68.0516 30.8606 68.6716 29.8606C69.2916 28.8406 69.6016 27.6506 69.6016 26.2906C69.6016 24.9106 69.2916 23.7206 68.6716 22.7206C68.0516 21.7206 67.1516 20.9506 65.9716 20.4106C64.8116 19.8706 63.4016 19.6006 61.7416 19.6006H57.5716V23.2306ZM75.7847 26.8006H71.9747V40.6006H75.7847V26.8006ZM79.8347 30.8506L81.6047 27.5506C81.3247 27.1906 80.9547 26.9206 80.4947 26.7406C80.0547 26.5606 79.5847 26.4706 79.0847 26.4706C78.3647 26.4706 77.6647 26.7306 76.9847 27.2506C76.3047 27.7506 75.7547 28.4306 75.3347 29.2906C74.9147 30.1306 74.7047 31.1006 74.7047 32.2006L75.7847 33.2806C75.7847 32.6206 75.8647 32.0606 76.0247 31.6006C76.2047 31.1206 76.4647 30.7506 76.8047 30.4906C77.1447 30.2306 77.5547 30.1006 78.0347 30.1006C78.4347 30.1006 78.7647 30.1706 79.0247 30.3106C79.3047 30.4306 79.5747 30.6106 79.8347 30.8506ZM83.4841 21.4606C83.4841 22.0806 83.7141 22.6006 84.1741 23.0206C84.6341 23.4406 85.1841 23.6506 85.8241 23.6506C86.4641 23.6506 87.0041 23.4406 87.4441 23.0206C87.9041 22.6006 88.1341 22.0806 88.1341 21.4606C88.1341 20.8206 87.9041 20.3006 87.4441 19.9006C87.0041 19.4806 86.4641 19.2706 85.8241 19.2706C85.1841 19.2706 84.6341 19.4806 84.1741 19.9006C83.7141 20.3006 83.4841 20.8206 83.4841 21.4606ZM83.9041 26.8006V40.6006H87.6841V26.8006H83.9041ZM112.209 31.7806C112.209 30.6606 112.049 29.7106 111.729 28.9306C111.429 28.1306 110.959 27.5306 110.319 27.1306C109.679 26.7106 108.849 26.5006 107.829 26.5006C106.889 26.5006 106.049 26.7006 105.309 27.1006C104.589 27.5006 103.979 28.0906 103.479 28.8706C103.179 28.0906 102.699 27.5006 102.039 27.1006C101.379 26.7006 100.539 26.5006 99.5187 26.5006C98.5987 26.5006 97.8087 26.7006 97.1487 27.1006C96.4887 27.5006 95.9587 28.0806 95.5587 28.8406V26.8006H91.8087V40.6006H95.5587V32.2006C95.5587 31.6006 95.6587 31.0906 95.8587 30.6706C96.0587 30.2306 96.3387 29.9106 96.6987 29.7106C97.0587 29.4906 97.4787 29.3806 97.9587 29.3806C98.6787 29.3806 99.1987 29.6206 99.5187 30.1006C99.8387 30.5606 99.9987 31.2606 99.9987 32.2006V40.6006H103.869V32.2006C103.869 31.6006 103.969 31.0906 104.169 30.6706C104.369 30.2306 104.649 29.9106 105.009 29.7106C105.369 29.4906 105.789 29.3806 106.269 29.3806C106.989 29.3806 107.509 29.6206 107.829 30.1006C108.149 30.5606 108.309 31.2606 108.309 32.2006V40.6006H112.209V31.7806ZM122.547 40.9006C124.207 40.9006 125.627 40.5806 126.807 39.9406C128.007 39.2806 128.967 38.3006 129.687 37.0006L126.297 35.9506C125.897 36.6106 125.387 37.1106 124.767 37.4506C124.167 37.7706 123.437 37.9306 122.577 37.9306C121.817 37.9306 121.167 37.7606 120.627 37.4206C120.087 37.0806 119.677 36.5906 119.397 35.9506C119.137 35.3106 119.007 34.5306 119.007 33.6106C119.027 32.6506 119.167 31.8506 119.427 31.2106C119.707 30.5506 120.097 30.0606 120.597 29.7406C121.117 29.4006 121.757 29.2306 122.517 29.2306C123.137 29.2306 123.677 29.3706 124.137 29.6506C124.597 29.9306 124.947 30.3106 125.187 30.7906C125.447 31.2706 125.577 31.8506 125.577 32.5306C125.577 32.6706 125.537 32.8506 125.457 33.0706C125.397 33.2706 125.327 33.4306 125.247 33.5506L126.297 32.1706H117.327V34.5706H129.687C129.707 34.4506 129.717 34.2906 129.717 34.0906C129.737 33.8906 129.747 33.7006 129.747 33.5206C129.747 32.0406 129.467 30.7806 128.907 29.7406C128.347 28.6806 127.527 27.8806 126.447 27.3406C125.387 26.7806 124.097 26.5006 122.577 26.5006C121.057 26.5006 119.737 26.8006 118.617 27.4006C117.497 27.9806 116.627 28.8106 116.007 29.8906C115.407 30.9506 115.107 32.2206 115.107 33.7006C115.107 35.1606 115.407 36.4306 116.007 37.5106C116.627 38.5706 117.497 39.4006 118.617 40.0006C119.737 40.6006 121.047 40.9006 122.547 40.9006ZM133.038 19.6006V40.6006H137.328V19.6006H133.038ZM135.648 23.2306H139.818C140.958 23.2306 141.858 23.4906 142.518 24.0106C143.178 24.5106 143.508 25.2706 143.508 26.2906C143.508 27.2906 143.178 28.0506 142.518 28.5706C141.858 29.0906 140.958 29.3506 139.818 29.3506H135.648V32.9806H139.818C141.478 32.9806 142.888 32.7106 144.048 32.1706C145.228 31.6306 146.128 30.8606 146.748 29.8606C147.368 28.8406 147.678 27.6506 147.678 26.2906C147.678 24.9106 147.368 23.7206 146.748 22.7206C146.128 21.7206 145.228 20.9506 144.048 20.4106C142.888 19.8706 141.478 19.6006 139.818 19.6006H135.648V23.2306ZM152.489 36.3106C152.489 35.9106 152.579 35.5806 152.759 35.3206C152.939 35.0406 153.219 34.8306 153.599 34.6906C153.979 34.5306 154.469 34.4506 155.069 34.4506C155.809 34.4506 156.509 34.5506 157.169 34.7506C157.849 34.9506 158.459 35.2506 158.999 35.6506V33.8506C158.799 33.6106 158.469 33.3606 158.009 33.1006C157.549 32.8406 156.979 32.6206 156.299 32.4406C155.639 32.2606 154.869 32.1706 153.989 32.1706C152.269 32.1706 150.939 32.5606 149.999 33.3406C149.059 34.1206 148.589 35.1806 148.589 36.5206C148.589 37.4606 148.809 38.2606 149.249 38.9206C149.709 39.5606 150.309 40.0506 151.049 40.3906C151.789 40.7306 152.589 40.9006 153.449 40.9006C154.289 40.9006 155.089 40.7506 155.849 40.4506C156.629 40.1506 157.259 39.7006 157.739 39.1006C158.239 38.5006 158.489 37.7606 158.489 36.8806L158.009 35.0806C158.009 35.7406 157.859 36.3106 157.559 36.7906C157.259 37.2506 156.869 37.6106 156.389 37.8706C155.909 38.1106 155.369 38.2306 154.769 38.2306C154.349 38.2306 153.959 38.1606 153.599 38.0206C153.259 37.8606 152.989 37.6406 152.789 37.3606C152.589 37.0606 152.489 36.7106 152.489 36.3106ZM150.989 30.7006C151.189 30.5606 151.499 30.3906 151.919 30.1906C152.339 29.9906 152.839 29.8206 153.419 29.6806C153.999 29.5406 154.609 29.4706 155.249 29.4706C155.669 29.4706 156.049 29.5106 156.389 29.5906C156.729 29.6706 157.019 29.8006 157.259 29.9806C157.519 30.1606 157.709 30.3906 157.829 30.6706C157.949 30.9306 158.009 31.2506 158.009 31.6306V40.6006H161.759V30.8206C161.759 29.8806 161.499 29.0906 160.979 28.4506C160.459 27.7906 159.739 27.2906 158.819 26.9506C157.899 26.6106 156.849 26.4406 155.669 26.4406C154.389 26.4406 153.229 26.6206 152.189 26.9806C151.149 27.3206 150.269 27.6806 149.549 28.0606L150.989 30.7006ZM178.367 26.8006H174.317L169.967 37.7206L171.887 37.7806L167.447 26.8006H163.127L168.857 39.2206L165.377 47.2006H169.367L178.367 26.8006ZM178.682 38.8306C178.682 39.4706 178.912 40.0306 179.372 40.5106C179.852 40.9906 180.442 41.2306 181.142 41.2306C181.862 41.2306 182.452 40.9906 182.912 40.5106C183.372 40.0306 183.602 39.4706 183.602 38.8306C183.602 38.1506 183.372 37.5806 182.912 37.1206C182.452 36.6406 181.862 36.4006 181.142 36.4006C180.442 36.4006 179.852 36.6406 179.372 37.1206C178.912 37.5806 178.682 38.1506 178.682 38.8306Z" fill="#231656"/>
<defs>
<linearGradient id="paint0_linear_3_1335" x1="7.26889" y1="3.62191" x2="22.2654" y2="51.5055" gradientUnits="userSpaceOnUse">
<stop stop-color="#7D7AFF"/>
<stop offset="1" stop-color="#3CBBFF"/>
</linearGradient>
<linearGradient id="paint1_linear_3_1335" x1="14.3724" y1="12.5672" x2="29.3689" y2="60.4508" gradientUnits="userSpaceOnUse">
<stop stop-color="#FF60CF"/>
<stop offset="1" stop-color="#FFBA64"/>
</linearGradient>
</defs>
</svg>
