<svg width="177" height="55" viewBox="0 0 177 55" fill="none" xmlns="http://www.w3.org/2000/svg">
<path fill-rule="evenodd" clip-rule="evenodd" d="M3.06013 41.873H9.81509C11.5152 41.873 12.8979 40.6463 12.8752 39.1582V29.365H20.5595C29.6493 29.365 37.0163 22.8296 37.0163 14.7658C37.0163 6.70199 29.6493 0.166504 20.5369 0.166504H12.8752H8.65901H3.06013C1.38273 0.166504 0 1.39316 0 2.88124V39.1582C0 40.6463 1.36006 41.873 3.06013 41.873Z" fill="url(#paint0_linear_3_2502)" fill-opacity="0.8"/>
<path fill-rule="evenodd" clip-rule="evenodd" d="M10.1636 49.8085H16.9186C18.6187 49.8085 20.0014 48.5819 19.9787 47.0938V37.3007H27.6631C36.7528 37.3007 44.1198 30.7652 44.1198 22.7014C44.1198 14.6376 36.7528 8.10211 27.6404 8.10211H19.9787V8.10205H10.1636C8.48624 8.10205 7.10352 9.32871 7.10352 10.8168V47.0938C7.10352 48.5819 8.46358 49.8085 10.1636 49.8085Z" fill="url(#paint1_linear_3_2502)" fill-opacity="0.74"/>
<path d="M7.10205 53.3037L8.78565 53.2979C10.9894 53.2903 12.7718 51.5017 12.7718 49.2979V38.8116H19.9719C25.6658 38.7221 37.0185 35.2157 36.8777 21.9058C36.7369 8.59597 25.5485 5.0895 19.9719 5" stroke="white" stroke-width="2"/>
<path d="M55.0816 23.6001V44.6001H57.6316V23.6001H55.0816ZM56.4916 26.0001H60.7816C62.1416 26.0001 63.2416 26.3301 64.0816 26.9901C64.9416 27.6301 65.3716 28.6001 65.3716 29.9001C65.3716 31.1801 64.9416 32.1501 64.0816 32.8101C63.2416 33.4701 62.1416 33.8001 60.7816 33.8001H56.4916V36.2001H60.7816C62.1416 36.2001 63.3516 35.9501 64.4116 35.4501C65.4916 34.9301 66.3416 34.2001 66.9616 33.2601C67.6016 32.3001 67.9216 31.1801 67.9216 29.9001C67.9216 28.6001 67.6016 27.4801 66.9616 26.5401C66.3416 25.6001 65.4916 24.8801 64.4116 24.3801C63.3516 23.8601 62.1416 23.6001 60.7816 23.6001H56.4916V26.0001ZM73.1813 30.8001H70.7813V44.6001H73.1813V30.8001ZM77.3512 33.4401L78.6713 31.4601C78.3113 31.0801 77.9113 30.8301 77.4713 30.7101C77.0513 30.5701 76.5913 30.5001 76.0913 30.5001C75.4513 30.5001 74.8213 30.7501 74.2013 31.2501C73.5813 31.7501 73.0713 32.4301 72.6713 33.2901C72.2913 34.1301 72.1013 35.1001 72.1013 36.2001H73.1813C73.1813 35.5401 73.2413 34.9501 73.3613 34.4301C73.5013 33.9101 73.7413 33.5001 74.0813 33.2001C74.4213 32.9001 74.8913 32.7501 75.4913 32.7501C75.8913 32.7501 76.2213 32.8101 76.4813 32.9301C76.7413 33.0301 77.0313 33.2001 77.3512 33.4401ZM81.0645 25.1001C81.0645 25.5401 81.2245 25.9301 81.5445 26.2701C81.8845 26.5901 82.2745 26.7501 82.7145 26.7501C83.1745 26.7501 83.5645 26.5901 83.8845 26.2701C84.2045 25.9301 84.3645 25.5401 84.3645 25.1001C84.3645 24.6401 84.2045 24.2501 83.8845 23.9301C83.5645 23.6101 83.1745 23.4501 82.7145 23.4501C82.2745 23.4501 81.8845 23.6101 81.5445 23.9301C81.2245 24.2501 81.0645 24.6401 81.0645 25.1001ZM81.5145 30.8001V44.6001H83.9145V30.8001H81.5145ZM107.757 35.9001C107.757 34.7601 107.577 33.7901 107.217 32.9901C106.877 32.1701 106.377 31.5501 105.717 31.1301C105.057 30.7101 104.257 30.5001 103.317 30.5001C102.397 30.5001 101.577 30.7201 100.857 31.1601C100.137 31.5801 99.5374 32.2201 99.0574 33.0801C98.7374 32.2601 98.2274 31.6301 97.5274 31.1901C96.8474 30.7301 96.0274 30.5001 95.0674 30.5001C94.2074 30.5001 93.4574 30.6901 92.8174 31.0701C92.1974 31.4501 91.6774 32.0301 91.2574 32.8101V30.8001H88.8574V44.6001H91.2574V36.2001C91.2574 35.4801 91.3874 34.8601 91.6474 34.3401C91.9074 33.8201 92.2774 33.4301 92.7574 33.1701C93.2374 32.8901 93.8074 32.7501 94.4674 32.7501C95.3674 32.7501 96.0274 33.0301 96.4474 33.5901C96.8874 34.1501 97.1074 35.0201 97.1074 36.2001V44.6001H99.5074V36.2001C99.5074 35.4801 99.6374 34.8601 99.8974 34.3401C100.157 33.8201 100.527 33.4301 101.007 33.1701C101.487 32.8901 102.057 32.7501 102.717 32.7501C103.617 32.7501 104.277 33.0301 104.697 33.5901C105.137 34.1501 105.357 35.0201 105.357 36.2001V44.6001H107.757V35.9001ZM117.606 44.9001C119.086 44.9001 120.366 44.6101 121.446 44.0301C122.546 43.4301 123.456 42.5501 124.176 41.3901L122.226 40.1601C121.726 41.0001 121.116 41.6301 120.396 42.0501C119.676 42.4501 118.846 42.6501 117.906 42.6501C116.966 42.6501 116.166 42.4501 115.506 42.0501C114.846 41.6501 114.346 41.0701 114.006 40.3101C113.666 39.5501 113.496 38.6301 113.496 37.5501C113.516 36.4901 113.696 35.6001 114.036 34.8801C114.396 34.1401 114.896 33.5801 115.536 33.2001C116.196 32.8001 116.986 32.6001 117.906 32.6001C118.686 32.6001 119.366 32.7701 119.946 33.1101C120.526 33.4501 120.976 33.9201 121.296 34.5201C121.636 35.1201 121.806 35.8301 121.806 36.6501C121.806 36.7901 121.776 36.9701 121.716 37.1901C121.656 37.3901 121.596 37.5401 121.536 37.6401L122.496 36.2601H112.596V38.3001H124.386C124.386 38.2601 124.386 38.1701 124.386 38.0301C124.406 37.8701 124.416 37.7201 124.416 37.5801C124.416 36.1201 124.156 34.8601 123.636 33.8001C123.116 32.7401 122.366 31.9301 121.386 31.3701C120.426 30.7901 119.266 30.5001 117.906 30.5001C116.546 30.5001 115.346 30.8001 114.306 31.4001C113.286 32.0001 112.486 32.8401 111.906 33.9201C111.346 35.0001 111.066 36.2601 111.066 37.7001C111.066 39.1201 111.336 40.3701 111.876 41.4501C112.436 42.5301 113.206 43.3801 114.186 44.0001C115.186 44.6001 116.326 44.9001 117.606 44.9001ZM127.855 23.6001V44.6001H130.405V23.6001H127.855ZM129.265 26.0001H133.555C134.915 26.0001 136.015 26.3301 136.855 26.9901C137.715 27.6301 138.145 28.6001 138.145 29.9001C138.145 31.1801 137.715 32.1501 136.855 32.8101C136.015 33.4701 134.915 33.8001 133.555 33.8001H129.265V36.2001H133.555C134.915 36.2001 136.125 35.9501 137.185 35.4501C138.265 34.9301 139.115 34.2001 139.735 33.2601C140.375 32.3001 140.695 31.1801 140.695 29.9001C140.695 28.6001 140.375 27.4801 139.735 26.5401C139.115 25.6001 138.265 24.8801 137.185 24.3801C136.125 23.8601 134.915 23.6001 133.555 23.6001H129.265V26.0001ZM144.312 40.3401C144.312 39.8401 144.432 39.4101 144.672 39.0501C144.912 38.6901 145.272 38.4101 145.752 38.2101C146.252 38.0101 146.892 37.9101 147.672 37.9101C148.512 37.9101 149.302 38.0201 150.042 38.2401C150.782 38.4401 151.502 38.7801 152.202 39.2601V37.8501C152.062 37.6701 151.792 37.4401 151.392 37.1601C150.992 36.8601 150.452 36.6001 149.772 36.3801C149.112 36.1401 148.282 36.0201 147.282 36.0201C145.582 36.0201 144.252 36.4301 143.292 37.2501C142.352 38.0501 141.882 39.1201 141.882 40.4601C141.882 41.4001 142.102 42.2001 142.542 42.8601C142.982 43.5201 143.562 44.0301 144.282 44.3901C145.022 44.7301 145.812 44.9001 146.652 44.9001C147.412 44.9001 148.172 44.7601 148.932 44.4801C149.712 44.2001 150.362 43.7701 150.882 43.1901C151.422 42.6101 151.692 41.8801 151.692 41.0001L151.212 39.2001C151.212 39.9201 151.032 40.5601 150.672 41.1201C150.332 41.6601 149.862 42.0801 149.262 42.3801C148.682 42.6801 148.022 42.8301 147.282 42.8301C146.702 42.8301 146.182 42.7401 145.722 42.5601C145.282 42.3601 144.932 42.0701 144.672 41.6901C144.432 41.3101 144.312 40.8601 144.312 40.3401ZM143.952 33.9801C144.172 33.8201 144.472 33.6301 144.852 33.4101C145.232 33.1901 145.692 33.0001 146.232 32.8401C146.792 32.6801 147.412 32.6001 148.092 32.6001C148.512 32.6001 148.912 32.6401 149.292 32.7201C149.672 32.8001 150.002 32.9301 150.282 33.1101C150.582 33.2901 150.812 33.5401 150.972 33.8601C151.132 34.1601 151.212 34.5501 151.212 35.0301V44.6001H153.612V34.7001C153.612 33.8001 153.382 33.0401 152.922 32.4201C152.482 31.8001 151.852 31.3301 151.032 31.0101C150.232 30.6701 149.292 30.5001 148.212 30.5001C146.932 30.5001 145.832 30.6901 144.912 31.0701C144.012 31.4501 143.302 31.8301 142.782 32.2101L143.952 33.9801ZM168.479 30.8001H165.779L161.519 41.4801L162.509 41.6001L158.129 30.8001H155.279L160.559 42.6501L156.779 51.2001H159.479L168.479 30.8001ZM169.555 43.4001C169.555 43.8401 169.715 44.2301 170.035 44.5701C170.375 44.8901 170.765 45.0501 171.205 45.0501C171.665 45.0501 172.055 44.8901 172.375 44.5701C172.695 44.2301 172.855 43.8401 172.855 43.4001C172.855 42.9401 172.695 42.5501 172.375 42.2301C172.055 41.9101 171.665 41.7501 171.205 41.7501C170.765 41.7501 170.375 41.9101 170.035 42.2301C169.715 42.5501 169.555 42.9401 169.555 43.4001Z" fill="#231656"/>
<defs>
<linearGradient id="paint0_linear_3_2502" x1="7.26888" y1="1.79594" x2="19.3001" y2="45.0989" gradientUnits="userSpaceOnUse">
<stop stop-color="#7D7AFF"/>
<stop offset="1" stop-color="#3CBBFF"/>
</linearGradient>
<linearGradient id="paint1_linear_3_2502" x1="14.3724" y1="9.73149" x2="26.4036" y2="53.0345" gradientUnits="userSpaceOnUse">
<stop stop-color="#FF60CF"/>
<stop offset="1" stop-color="#FFBA64"/>
</linearGradient>
</defs>
</svg>
