<svg width="177" height="56" viewBox="0 0 177 56" fill="none" xmlns="http://www.w3.org/2000/svg">
<path fill-rule="evenodd" clip-rule="evenodd" d="M3.14146 43.7065H10.076C11.8212 43.7065 13.2407 42.4798 13.2174 40.9917V31H20.0067C28.8405 31 36 24.509 36 16.5C36 8.49105 28.8405 2 19.9846 2H13.2174H8.44125H3.14146C1.41948 2 0 3.22666 0 4.71474V40.9917C0 42.4798 1.39621 43.7065 3.14146 43.7065Z" fill="url(#paint0_linear_3_719)" fill-opacity="0.8"/>
<path fill-rule="evenodd" clip-rule="evenodd" d="M11.1636 48.642H17.9186C19.6187 48.642 21.0014 47.4153 20.9787 45.9273V36.1341H25.6631C34.7529 36.1341 42.1198 29.5986 42.1198 21.5348C42.1198 13.471 34.7529 6.93555 25.6405 6.93555H20.9787H13.7626H11.1636C9.48624 6.93555 8.10352 8.16221 8.10352 9.65029V45.9273C8.10352 47.4153 9.46358 48.642 11.1636 48.642Z" fill="url(#paint1_linear_3_719)" fill-opacity="0.74"/>
<path d="M5 45L6.72475 44.9946C8.929 44.9877 10.7122 43.1989 10.7122 40.9946V31.7991H17.9662C23.7028 31.7176 35.1405 28.5235 34.9987 16.3996C34.8569 4.27558 23.5846 1.08153 17.9662 1" stroke="white" stroke-width="2"/>
<path d="M55.0816 25.4336V46.4336H57.6316V25.4336H55.0816ZM56.4916 27.8336H60.7816C62.1416 27.8336 63.2416 28.1636 64.0816 28.8236C64.9416 29.4636 65.3716 30.4336 65.3716 31.7336C65.3716 33.0136 64.9416 33.9836 64.0816 34.6436C63.2416 35.3036 62.1416 35.6336 60.7816 35.6336H56.4916V38.0336H60.7816C62.1416 38.0336 63.3516 37.7836 64.4116 37.2836C65.4916 36.7636 66.3416 36.0336 66.9616 35.0936C67.6016 34.1336 67.9216 33.0136 67.9216 31.7336C67.9216 30.4336 67.6016 29.3136 66.9616 28.3736C66.3416 27.4336 65.4916 26.7136 64.4116 26.2136C63.3516 25.6936 62.1416 25.4336 60.7816 25.4336H56.4916V27.8336ZM73.1813 32.6336H70.7813V46.4336H73.1813V32.6336ZM77.3512 35.2736L78.6713 33.2936C78.3113 32.9136 77.9113 32.6636 77.4713 32.5436C77.0513 32.4036 76.5913 32.3336 76.0913 32.3336C75.4513 32.3336 74.8213 32.5836 74.2013 33.0836C73.5813 33.5836 73.0713 34.2636 72.6713 35.1236C72.2913 35.9636 72.1013 36.9336 72.1013 38.0336H73.1813C73.1813 37.3736 73.2413 36.7836 73.3613 36.2636C73.5013 35.7436 73.7413 35.3336 74.0813 35.0336C74.4213 34.7336 74.8913 34.5836 75.4913 34.5836C75.8913 34.5836 76.2213 34.6436 76.4813 34.7636C76.7413 34.8636 77.0313 35.0336 77.3512 35.2736ZM81.0645 26.9336C81.0645 27.3736 81.2245 27.7636 81.5445 28.1036C81.8845 28.4236 82.2745 28.5836 82.7145 28.5836C83.1745 28.5836 83.5645 28.4236 83.8845 28.1036C84.2045 27.7636 84.3645 27.3736 84.3645 26.9336C84.3645 26.4736 84.2045 26.0836 83.8845 25.7636C83.5645 25.4436 83.1745 25.2836 82.7145 25.2836C82.2745 25.2836 81.8845 25.4436 81.5445 25.7636C81.2245 26.0836 81.0645 26.4736 81.0645 26.9336ZM81.5145 32.6336V46.4336H83.9145V32.6336H81.5145ZM107.757 37.7336C107.757 36.5936 107.577 35.6236 107.217 34.8236C106.877 34.0036 106.377 33.3836 105.717 32.9636C105.057 32.5436 104.257 32.3336 103.317 32.3336C102.397 32.3336 101.577 32.5536 100.857 32.9936C100.137 33.4136 99.5374 34.0536 99.0574 34.9136C98.7374 34.0936 98.2274 33.4636 97.5274 33.0236C96.8474 32.5636 96.0274 32.3336 95.0674 32.3336C94.2074 32.3336 93.4574 32.5236 92.8174 32.9036C92.1974 33.2836 91.6774 33.8636 91.2574 34.6436V32.6336H88.8574V46.4336H91.2574V38.0336C91.2574 37.3136 91.3874 36.6936 91.6474 36.1736C91.9074 35.6536 92.2774 35.2636 92.7574 35.0036C93.2374 34.7236 93.8074 34.5836 94.4674 34.5836C95.3674 34.5836 96.0274 34.8636 96.4474 35.4236C96.8874 35.9836 97.1074 36.8536 97.1074 38.0336V46.4336H99.5074V38.0336C99.5074 37.3136 99.6374 36.6936 99.8974 36.1736C100.157 35.6536 100.527 35.2636 101.007 35.0036C101.487 34.7236 102.057 34.5836 102.717 34.5836C103.617 34.5836 104.277 34.8636 104.697 35.4236C105.137 35.9836 105.357 36.8536 105.357 38.0336V46.4336H107.757V37.7336ZM117.606 46.7336C119.086 46.7336 120.366 46.4436 121.446 45.8636C122.546 45.2636 123.456 44.3836 124.176 43.2236L122.226 41.9936C121.726 42.8336 121.116 43.4636 120.396 43.8836C119.676 44.2836 118.846 44.4836 117.906 44.4836C116.966 44.4836 116.166 44.2836 115.506 43.8836C114.846 43.4836 114.346 42.9036 114.006 42.1436C113.666 41.3836 113.496 40.4636 113.496 39.3836C113.516 38.3236 113.696 37.4336 114.036 36.7136C114.396 35.9736 114.896 35.4136 115.536 35.0336C116.196 34.6336 116.986 34.4336 117.906 34.4336C118.686 34.4336 119.366 34.6036 119.946 34.9436C120.526 35.2836 120.976 35.7536 121.296 36.3536C121.636 36.9536 121.806 37.6636 121.806 38.4836C121.806 38.6236 121.776 38.8036 121.716 39.0236C121.656 39.2236 121.596 39.3736 121.536 39.4736L122.496 38.0936H112.596V40.1336H124.386C124.386 40.0936 124.386 40.0036 124.386 39.8636C124.406 39.7036 124.416 39.5536 124.416 39.4136C124.416 37.9536 124.156 36.6936 123.636 35.6336C123.116 34.5736 122.366 33.7636 121.386 33.2036C120.426 32.6236 119.266 32.3336 117.906 32.3336C116.546 32.3336 115.346 32.6336 114.306 33.2336C113.286 33.8336 112.486 34.6736 111.906 35.7536C111.346 36.8336 111.066 38.0936 111.066 39.5336C111.066 40.9536 111.336 42.2036 111.876 43.2836C112.436 44.3636 113.206 45.2136 114.186 45.8336C115.186 46.4336 116.326 46.7336 117.606 46.7336ZM127.855 25.4336V46.4336H130.405V25.4336H127.855ZM129.265 27.8336H133.555C134.915 27.8336 136.015 28.1636 136.855 28.8236C137.715 29.4636 138.145 30.4336 138.145 31.7336C138.145 33.0136 137.715 33.9836 136.855 34.6436C136.015 35.3036 134.915 35.6336 133.555 35.6336H129.265V38.0336H133.555C134.915 38.0336 136.125 37.7836 137.185 37.2836C138.265 36.7636 139.115 36.0336 139.735 35.0936C140.375 34.1336 140.695 33.0136 140.695 31.7336C140.695 30.4336 140.375 29.3136 139.735 28.3736C139.115 27.4336 138.265 26.7136 137.185 26.2136C136.125 25.6936 134.915 25.4336 133.555 25.4336H129.265V27.8336ZM144.312 42.1736C144.312 41.6736 144.432 41.2436 144.672 40.8836C144.912 40.5236 145.272 40.2436 145.752 40.0436C146.252 39.8436 146.892 39.7436 147.672 39.7436C148.512 39.7436 149.302 39.8536 150.042 40.0736C150.782 40.2736 151.502 40.6136 152.202 41.0936V39.6836C152.062 39.5036 151.792 39.2736 151.392 38.9936C150.992 38.6936 150.452 38.4336 149.772 38.2136C149.112 37.9736 148.282 37.8536 147.282 37.8536C145.582 37.8536 144.252 38.2636 143.292 39.0836C142.352 39.8836 141.882 40.9536 141.882 42.2936C141.882 43.2336 142.102 44.0336 142.542 44.6936C142.982 45.3536 143.562 45.8636 144.282 46.2236C145.022 46.5636 145.812 46.7336 146.652 46.7336C147.412 46.7336 148.172 46.5936 148.932 46.3136C149.712 46.0336 150.362 45.6036 150.882 45.0236C151.422 44.4436 151.692 43.7136 151.692 42.8336L151.212 41.0336C151.212 41.7536 151.032 42.3936 150.672 42.9536C150.332 43.4936 149.862 43.9136 149.262 44.2136C148.682 44.5136 148.022 44.6636 147.282 44.6636C146.702 44.6636 146.182 44.5736 145.722 44.3936C145.282 44.1936 144.932 43.9036 144.672 43.5236C144.432 43.1436 144.312 42.6936 144.312 42.1736ZM143.952 35.8136C144.172 35.6536 144.472 35.4636 144.852 35.2436C145.232 35.0236 145.692 34.8336 146.232 34.6736C146.792 34.5136 147.412 34.4336 148.092 34.4336C148.512 34.4336 148.912 34.4736 149.292 34.5536C149.672 34.6336 150.002 34.7636 150.282 34.9436C150.582 35.1236 150.812 35.3736 150.972 35.6936C151.132 35.9936 151.212 36.3836 151.212 36.8636V46.4336H153.612V36.5336C153.612 35.6336 153.382 34.8736 152.922 34.2536C152.482 33.6336 151.852 33.1636 151.032 32.8436C150.232 32.5036 149.292 32.3336 148.212 32.3336C146.932 32.3336 145.832 32.5236 144.912 32.9036C144.012 33.2836 143.302 33.6636 142.782 34.0436L143.952 35.8136ZM168.479 32.6336H165.779L161.519 43.3136L162.509 43.4336L158.129 32.6336H155.279L160.559 44.4836L156.779 53.0336H159.479L168.479 32.6336ZM169.555 45.2336C169.555 45.6736 169.715 46.0636 170.035 46.4036C170.375 46.7236 170.765 46.8836 171.205 46.8836C171.665 46.8836 172.055 46.7236 172.375 46.4036C172.695 46.0636 172.855 45.6736 172.855 45.2336C172.855 44.7736 172.695 44.3836 172.375 44.0636C172.055 43.7436 171.665 43.5836 171.205 43.5836C170.765 43.5836 170.375 43.7436 170.035 44.0636C169.715 44.3836 169.555 44.7736 169.555 45.2336Z" fill="#231656"/>
<defs>
<linearGradient id="paint0_linear_3_719" x1="7.46207" y1="3.62944" x2="19.2249" y2="47.0916" gradientUnits="userSpaceOnUse">
<stop stop-color="#7D7AFF"/>
<stop offset="1" stop-color="#3CBBFF"/>
</linearGradient>
<linearGradient id="paint1_linear_3_719" x1="15.3724" y1="8.56499" x2="27.4036" y2="51.8679" gradientUnits="userSpaceOnUse">
<stop stop-color="#FF60CF"/>
<stop offset="1" stop-color="#FFBA64"/>
</linearGradient>
</defs>
</svg>
