<svg width="177" height="56" viewBox="0 0 177 56" fill="none" xmlns="http://www.w3.org/2000/svg">
<path fill-rule="evenodd" clip-rule="evenodd" d="M3.14146 43.7065H10.076C11.8212 43.7065 13.2407 42.4798 13.2174 40.9917V31H20.0067C28.8405 31 36 24.509 36 16.5C36 8.49105 28.8405 2 19.9846 2H13.2174H8.44125H3.14146C1.41948 2 0 3.22666 0 4.71474V40.9917C0 42.4798 1.39621 43.7065 3.14146 43.7065Z" fill="url(#paint0_linear_3_1062)" fill-opacity="0.8"/>
<path fill-rule="evenodd" clip-rule="evenodd" d="M11.1636 48.642H17.9186C19.6187 48.642 21.0014 47.4153 20.9787 45.9273V36.1341H25.6631C34.7529 36.1341 42.1198 29.5986 42.1198 21.5348C42.1198 13.471 34.7529 6.93555 25.6405 6.93555H20.9787H13.7626H11.1636C9.48624 6.93555 8.10352 8.16221 8.10352 9.65029V45.9273C8.10352 47.4153 9.46358 48.642 11.1636 48.642Z" fill="url(#paint1_linear_3_1062)" fill-opacity="0.74"/>
<path d="M5 45L6.72475 44.9946C8.929 44.9877 10.7122 43.1989 10.7122 40.9946V31.7991H17.9662C23.7028 31.7176 35.1405 28.5235 34.9987 16.3996C34.8569 4.27558 23.5846 1.08153 17.9662 1" stroke="white" stroke-width="2"/>
<path d="M55.0818 25.4336V46.4336H57.6318V25.4336H55.0818ZM56.4918 27.8336H60.7818C62.1418 27.8336 63.2418 28.1636 64.0818 28.8236C64.9418 29.4636 65.3718 30.4336 65.3718 31.7336C65.3718 33.0136 64.9418 33.9836 64.0818 34.6436C63.2418 35.3036 62.1418 35.6336 60.7818 35.6336H56.4918V38.0336H60.7818C62.1418 38.0336 63.3518 37.7836 64.4118 37.2836C65.4918 36.7636 66.3418 36.0336 66.9618 35.0936C67.6018 34.1336 67.9218 33.0136 67.9218 31.7336C67.9218 30.4336 67.6018 29.3136 66.9618 28.3736C66.3418 27.4336 65.4918 26.7136 64.4118 26.2136C63.3518 25.6936 62.1418 25.4336 60.7818 25.4336H56.4918V27.8336ZM73.1814 32.6336H70.7814V46.4336H73.1814V32.6336ZM77.3514 35.2736L78.6714 33.2936C78.3114 32.9136 77.9114 32.6636 77.4714 32.5436C77.0514 32.4036 76.5914 32.3336 76.0914 32.3336C75.4514 32.3336 74.8214 32.5836 74.2014 33.0836C73.5814 33.5836 73.0714 34.2636 72.6714 35.1236C72.2914 35.9636 72.1014 36.9336 72.1014 38.0336H73.1814C73.1814 37.3736 73.2414 36.7836 73.3614 36.2636C73.5014 35.7436 73.7414 35.3336 74.0814 35.0336C74.4214 34.7336 74.8914 34.5836 75.4914 34.5836C75.8914 34.5836 76.2214 34.6436 76.4814 34.7636C76.7414 34.8636 77.0314 35.0336 77.3514 35.2736ZM81.0646 26.9336C81.0646 27.3736 81.2246 27.7636 81.5446 28.1036C81.8846 28.4236 82.2746 28.5836 82.7146 28.5836C83.1746 28.5836 83.5646 28.4236 83.8846 28.1036C84.2046 27.7636 84.3646 27.3736 84.3646 26.9336C84.3646 26.4736 84.2046 26.0836 83.8846 25.7636C83.5646 25.4436 83.1746 25.2836 82.7146 25.2836C82.2746 25.2836 81.8846 25.4436 81.5446 25.7636C81.2246 26.0836 81.0646 26.4736 81.0646 26.9336ZM81.5146 32.6336V46.4336H83.9146V32.6336H81.5146ZM107.758 37.7336C107.758 36.5936 107.578 35.6236 107.218 34.8236C106.878 34.0036 106.378 33.3836 105.718 32.9636C105.058 32.5436 104.258 32.3336 103.318 32.3336C102.398 32.3336 101.578 32.5536 100.858 32.9936C100.138 33.4136 99.5375 34.0536 99.0575 34.9136C98.7375 34.0936 98.2275 33.4636 97.5275 33.0236C96.8475 32.5636 96.0275 32.3336 95.0675 32.3336C94.2075 32.3336 93.4575 32.5236 92.8175 32.9036C92.1975 33.2836 91.6775 33.8636 91.2575 34.6436V32.6336H88.8575V46.4336H91.2575V38.0336C91.2575 37.3136 91.3875 36.6936 91.6475 36.1736C91.9075 35.6536 92.2775 35.2636 92.7575 35.0036C93.2375 34.7236 93.8075 34.5836 94.4675 34.5836C95.3675 34.5836 96.0275 34.8636 96.4475 35.4236C96.8875 35.9836 97.1075 36.8536 97.1075 38.0336V46.4336H99.5075V38.0336C99.5075 37.3136 99.6375 36.6936 99.8975 36.1736C100.158 35.6536 100.528 35.2636 101.008 35.0036C101.488 34.7236 102.058 34.5836 102.718 34.5836C103.618 34.5836 104.278 34.8636 104.698 35.4236C105.138 35.9836 105.358 36.8536 105.358 38.0336V46.4336H107.758V37.7336ZM117.606 46.7336C119.086 46.7336 120.366 46.4436 121.446 45.8636C122.546 45.2636 123.456 44.3836 124.176 43.2236L122.226 41.9936C121.726 42.8336 121.116 43.4636 120.396 43.8836C119.676 44.2836 118.846 44.4836 117.906 44.4836C116.966 44.4836 116.166 44.2836 115.506 43.8836C114.846 43.4836 114.346 42.9036 114.006 42.1436C113.666 41.3836 113.496 40.4636 113.496 39.3836C113.516 38.3236 113.696 37.4336 114.036 36.7136C114.396 35.9736 114.896 35.4136 115.536 35.0336C116.196 34.6336 116.986 34.4336 117.906 34.4336C118.686 34.4336 119.366 34.6036 119.946 34.9436C120.526 35.2836 120.976 35.7536 121.296 36.3536C121.636 36.9536 121.806 37.6636 121.806 38.4836C121.806 38.6236 121.776 38.8036 121.716 39.0236C121.656 39.2236 121.596 39.3736 121.536 39.4736L122.496 38.0936H112.596V40.1336H124.386C124.386 40.0936 124.386 40.0036 124.386 39.8636C124.406 39.7036 124.416 39.5536 124.416 39.4136C124.416 37.9536 124.156 36.6936 123.636 35.6336C123.116 34.5736 122.366 33.7636 121.386 33.2036C120.426 32.6236 119.266 32.3336 117.906 32.3336C116.546 32.3336 115.346 32.6336 114.306 33.2336C113.286 33.8336 112.486 34.6736 111.906 35.7536C111.346 36.8336 111.066 38.0936 111.066 39.5336C111.066 40.9536 111.336 42.2036 111.876 43.2836C112.436 44.3636 113.206 45.2136 114.186 45.8336C115.186 46.4336 116.326 46.7336 117.606 46.7336ZM127.855 25.4336V46.4336H130.405V25.4336H127.855ZM129.265 27.8336H133.555C134.915 27.8336 136.015 28.1636 136.855 28.8236C137.715 29.4636 138.145 30.4336 138.145 31.7336C138.145 33.0136 137.715 33.9836 136.855 34.6436C136.015 35.3036 134.915 35.6336 133.555 35.6336H129.265V38.0336H133.555C134.915 38.0336 136.125 37.7836 137.185 37.2836C138.265 36.7636 139.115 36.0336 139.735 35.0936C140.375 34.1336 140.695 33.0136 140.695 31.7336C140.695 30.4336 140.375 29.3136 139.735 28.3736C139.115 27.4336 138.265 26.7136 137.185 26.2136C136.125 25.6936 134.915 25.4336 133.555 25.4336H129.265V27.8336ZM144.313 42.1736C144.313 41.6736 144.433 41.2436 144.673 40.8836C144.913 40.5236 145.273 40.2436 145.753 40.0436C146.253 39.8436 146.893 39.7436 147.673 39.7436C148.513 39.7436 149.303 39.8536 150.043 40.0736C150.783 40.2736 151.503 40.6136 152.203 41.0936V39.6836C152.063 39.5036 151.793 39.2736 151.393 38.9936C150.993 38.6936 150.453 38.4336 149.773 38.2136C149.113 37.9736 148.283 37.8536 147.283 37.8536C145.583 37.8536 144.253 38.2636 143.293 39.0836C142.353 39.8836 141.883 40.9536 141.883 42.2936C141.883 43.2336 142.103 44.0336 142.543 44.6936C142.983 45.3536 143.563 45.8636 144.283 46.2236C145.023 46.5636 145.813 46.7336 146.653 46.7336C147.413 46.7336 148.173 46.5936 148.933 46.3136C149.713 46.0336 150.363 45.6036 150.883 45.0236C151.423 44.4436 151.693 43.7136 151.693 42.8336L151.213 41.0336C151.213 41.7536 151.033 42.3936 150.673 42.9536C150.333 43.4936 149.863 43.9136 149.263 44.2136C148.683 44.5136 148.023 44.6636 147.283 44.6636C146.703 44.6636 146.183 44.5736 145.723 44.3936C145.283 44.1936 144.933 43.9036 144.673 43.5236C144.433 43.1436 144.313 42.6936 144.313 42.1736ZM143.953 35.8136C144.173 35.6536 144.473 35.4636 144.853 35.2436C145.233 35.0236 145.693 34.8336 146.233 34.6736C146.793 34.5136 147.413 34.4336 148.093 34.4336C148.513 34.4336 148.913 34.4736 149.293 34.5536C149.673 34.6336 150.003 34.7636 150.283 34.9436C150.583 35.1236 150.813 35.3736 150.973 35.6936C151.133 35.9936 151.213 36.3836 151.213 36.8636V46.4336H153.613V36.5336C153.613 35.6336 153.383 34.8736 152.923 34.2536C152.483 33.6336 151.853 33.1636 151.033 32.8436C150.233 32.5036 149.293 32.3336 148.213 32.3336C146.933 32.3336 145.833 32.5236 144.913 32.9036C144.013 33.2836 143.303 33.6636 142.783 34.0436L143.953 35.8136ZM168.479 32.6336H165.779L161.519 43.3136L162.509 43.4336L158.129 32.6336H155.279L160.559 44.4836L156.779 53.0336H159.479L168.479 32.6336ZM169.555 45.2336C169.555 45.6736 169.715 46.0636 170.035 46.4036C170.375 46.7236 170.765 46.8836 171.205 46.8836C171.665 46.8836 172.055 46.7236 172.375 46.4036C172.695 46.0636 172.855 45.6736 172.855 45.2336C172.855 44.7736 172.695 44.3836 172.375 44.0636C172.055 43.7436 171.665 43.5836 171.205 43.5836C170.765 43.5836 170.375 43.7436 170.035 44.0636C169.715 44.3836 169.555 44.7736 169.555 45.2336Z" fill="#231656"/>
<defs>
<linearGradient id="paint0_linear_3_1062" x1="7.46207" y1="3.62944" x2="19.2249" y2="47.0916" gradientUnits="userSpaceOnUse">
<stop stop-color="#7D7AFF"/>
<stop offset="1" stop-color="#3CBBFF"/>
</linearGradient>
<linearGradient id="paint1_linear_3_1062" x1="15.3724" y1="8.56499" x2="27.4036" y2="51.8679" gradientUnits="userSpaceOnUse">
<stop stop-color="#FF60CF"/>
<stop offset="1" stop-color="#FFBA64"/>
</linearGradient>
</defs>
</svg>
