<svg width="39" height="38" viewBox="0 0 39 38" fill="none" xmlns="http://www.w3.org/2000/svg">
<path d="M17.5979 2.3541C18.1966 0.51148 20.8034 0.51148 21.4021 2.3541L24.5516 12.0471C24.8193 12.8712 25.5872 13.4291 26.4537 13.4291L36.6455 13.4291C38.583 13.4291 39.3885 15.9083 37.8211 17.0471L29.5757 23.0377C28.8747 23.547 28.5814 24.4498 28.8492 25.2738L31.9986 34.9668C32.5973 36.8094 30.4884 38.3417 28.9209 37.2029L20.6756 31.2123C19.9746 30.703 19.0254 30.703 18.3244 31.2123L10.0791 37.2029C8.51163 38.3417 6.40267 36.8094 7.00137 34.9668L10.1508 25.2738C10.4186 24.4498 10.1253 23.547 9.42428 23.0377L1.17891 17.0471C-0.388515 15.9083 0.417036 13.4291 2.35448 13.4291L12.5463 13.4291C13.4128 13.4291 14.1807 12.8712 14.4484 12.0471L17.5979 2.3541Z" fill="#FFB545"/>
</svg>
