<svg width="22" height="18" viewBox="0 0 22 18" fill="none" xmlns="http://www.w3.org/2000/svg">
<path d="M21.7294 2.06947C20.924 2.41918 20.0718 2.64958 19.1998 2.75338C20.1162 2.21715 20.8054 1.36527 21.138 0.357488C20.2716 0.863749 19.3253 1.21897 18.3396 1.40792C17.9246 0.973235 17.4254 0.627429 16.8724 0.391524C16.3194 0.155619 15.7242 0.0345417 15.123 0.0356521C12.6887 0.0356521 10.7187 1.97561 10.7187 4.36702C10.717 4.69966 10.7551 5.03131 10.8323 5.35488C9.08679 5.27311 7.37753 4.82814 5.81393 4.04843C4.25032 3.26873 2.8668 2.17146 1.75188 0.826831C1.36074 1.48575 1.15388 2.23756 1.15293 3.00369C1.15293 4.50559 1.93707 5.83317 3.12111 6.61093C2.4196 6.5943 1.73246 6.40876 1.11804 6.07007V6.12371C1.11804 8.22458 2.6389 9.97233 4.65182 10.3702C4.27329 10.471 3.88323 10.5221 3.49148 10.5221C3.21351 10.5226 2.93618 10.4957 2.66351 10.4417C3.2231 12.1626 4.85177 13.4142 6.78103 13.4499C5.21336 14.6572 3.28868 15.3098 1.30949 15.305C0.958176 15.3044 0.60719 15.2836 0.258301 15.2424C2.27174 16.5271 4.6122 17.2067 7.00111 17.2002C15.1136 17.2002 19.5456 10.5981 19.5456 4.87213C19.5456 4.68439 19.5407 4.49665 19.5317 4.31339C20.3919 3.70192 21.1361 2.94206 21.7294 2.06947Z" fill="#231656"/>
</svg>
