<svg width="27" height="20" viewBox="0 0 27 20" fill="none" xmlns="http://www.w3.org/2000/svg">
<path d="M26.3119 4.31339C26.3119 2.08689 24.6309 0.295789 22.5537 0.295789C19.74 0.167642 16.8705 0.118164 13.938 0.118164H13.0239C10.0985 0.118164 7.22391 0.167642 4.41028 0.296284C2.33814 0.296284 0.65707 2.09728 0.65707 4.32378C0.5301 6.08469 0.476265 7.8461 0.479313 9.60752C0.474234 11.3689 0.531793 13.132 0.651991 14.8967C0.651991 17.1232 2.33306 18.9291 4.4052 18.9291C7.36104 19.0627 10.3931 19.1221 13.4759 19.1172C16.5638 19.127 19.5873 19.0644 22.5465 18.9291C24.6238 18.9291 26.3048 17.1232 26.3048 14.8967C26.4267 13.1303 26.4826 11.3689 26.4775 9.60257C26.489 7.84116 26.4338 6.0781 26.3119 4.31339ZM10.9924 14.4613V4.7389L18.3566 9.59762L10.9924 14.4613Z" fill="#231656"/>
</svg>
